<svg width="1017" height="790" viewBox="0 0 1017 790" fill="none" xmlns="http://www.w3.org/2000/svg">
<path d="M0 0H1380V841C1380 845.418 1376.42 849 1372 849H7.99998C3.5817 849 0 845.418 0 841V0Z" fill="white"/>
<rect opacity="0.57" width="1380" height="48" fill="#D4E1E8"/>
<path d="M27.167 22C27.167 16.4772 31.6441 12 37.167 12H165.167C170.69 12 175.167 16.4772 175.167 22V48H27.167V22Z" fill="white"/>
<path d="M159.084 27.0834L153.25 32.9167M153.25 27.0834L159.084 32.9167" stroke="#181B26" stroke-width="0.8" stroke-linecap="round" stroke-linejoin="round"/>
<path d="M44.7153 26.9033H43.5347V25.7163H44.7153V26.9033ZM45.896 34H42.3477V33.2573H43.687V28.8267H42.3477V28.084H44.563V33.2573H45.896V34ZM53.6087 34H52.7327V30.3501C52.7327 29.8211 52.6184 29.4106 52.3899 29.1187C52.1614 28.8267 51.7911 28.6807 51.2791 28.6807C50.9574 28.6807 50.6655 28.7547 50.4031 28.9028C50.1449 29.0509 49.9249 29.2498 49.7429 29.4995C49.561 29.745 49.4213 30.0285 49.324 30.3501C49.2309 30.6675 49.1843 30.9997 49.1843 31.3467V34H48.3147V28.084H49.1843V29.5693C49.6033 28.486 50.3502 27.9443 51.4251 27.9443C52.8808 27.9443 53.6087 28.7463 53.6087 30.3501V34ZM60.4453 34H59.5694V33.4541C59.3197 33.6784 59.0446 33.8498 58.7442 33.9683C58.4479 34.0868 58.1432 34.146 57.8301 34.146C57.3604 34.146 56.9393 34.0698 56.5669 33.9175C56.1945 33.7651 55.8793 33.5535 55.6211 33.2827C55.3672 33.0076 55.1704 32.6797 55.0308 32.2988C54.8954 31.918 54.8277 31.5011 54.8277 31.0483C54.8277 30.5998 54.8954 30.1851 55.0308 29.8042C55.1704 29.4191 55.3672 29.0911 55.6211 28.8203C55.8793 28.5452 56.1945 28.3315 56.5669 28.1792C56.9393 28.0226 57.3604 27.9443 57.8301 27.9443C58.1432 27.9443 58.4479 28.0015 58.7442 28.1157C59.0446 28.2257 59.3197 28.3929 59.5694 28.6172V26.459H58.3887V25.7163H60.4453V34ZM59.5694 29.4614C59.3197 29.1864 59.0467 28.9875 58.7505 28.8647C58.4585 28.742 58.1475 28.6807 57.8174 28.6807C57.4704 28.6807 57.1636 28.742 56.897 28.8647C56.6346 28.9875 56.4146 29.1546 56.2368 29.3662C56.0591 29.5778 55.9237 29.8275 55.8306 30.1152C55.7417 30.3988 55.6973 30.7098 55.6973 31.0483C55.6973 31.3869 55.7417 31.7 55.8306 31.9878C55.9237 32.2713 56.0591 32.5189 56.2368 32.7305C56.4146 32.9421 56.6346 33.1092 56.897 33.2319C57.1636 33.3547 57.4704 33.416 57.8174 33.416C58.486 33.416 59.07 33.1515 59.5694 32.6226V29.4614ZM62.5467 31.3467C62.6101 31.973 62.8387 32.4723 63.2322 32.8447C63.6258 33.2171 64.1378 33.4033 64.7683 33.4033C65.2127 33.4033 65.6083 33.3123 65.9554 33.1304C66.3024 32.9484 66.5626 32.722 66.7361 32.4512L67.3455 32.8701C67.0493 33.2848 66.6959 33.6022 66.2854 33.8223C65.8749 34.0381 65.3693 34.146 64.7683 34.146C64.3113 34.146 63.8924 34.0698 63.5115 33.9175C63.1306 33.7651 62.8006 33.5535 62.5213 33.2827C62.2462 33.0076 62.0325 32.6818 61.8802 32.3052C61.7278 31.9285 61.6516 31.5096 61.6516 31.0483C61.6516 30.5998 61.7193 30.1872 61.8548 29.8105C61.9944 29.4297 62.1933 29.1017 62.4514 28.8267C62.7138 28.5474 63.0312 28.3315 63.4036 28.1792C63.776 28.0226 64.1928 27.9443 64.6541 27.9443C65.1577 27.9443 65.5978 28.029 65.9744 28.1982C66.351 28.3675 66.6642 28.6024 66.9138 28.9028C67.1678 29.1991 67.354 29.5545 67.4724 29.9692C67.5952 30.384 67.6565 30.8431 67.6565 31.3467H62.5467ZM66.7361 30.604C66.6388 29.9565 66.4039 29.4741 66.0315 29.1567C65.6591 28.8394 65.2 28.6807 64.6541 28.6807C64.3748 28.6807 64.1166 28.7272 63.8797 28.8203C63.6427 28.9092 63.4332 29.0382 63.2512 29.2075C63.0693 29.3768 62.9169 29.582 62.7942 29.8232C62.6715 30.0602 62.5932 30.3205 62.5594 30.604H66.7361ZM74.5694 34H72.1255V33.2319H72.646L71.4781 31.5181L70.3228 33.2319H70.7989V34H68.3868V33.2319H69.3072L70.9322 30.9976L69.3706 28.8647H68.5137V28.084H70.9449V28.8647H70.399L71.4781 30.4771L72.5699 28.8647H71.9732V28.084H74.4297V28.8647H73.5982L72.0367 30.9976L73.6617 33.2319H74.5694V34ZM78.8987 34H77.7181V32.8193H78.8987V34ZM87.792 34H86.9161V30.3501C86.9161 29.8211 86.8018 29.4106 86.5733 29.1187C86.3448 28.8267 85.9745 28.6807 85.4625 28.6807C85.1408 28.6807 84.8489 28.7547 84.5865 28.9028C84.3283 29.0509 84.1083 29.2498 83.9263 29.4995C83.7444 29.745 83.6047 30.0285 83.5074 30.3501C83.4143 30.6675 83.3677 30.9997 83.3677 31.3467V34H82.4981V25.7163H83.3677V29.5693C83.7867 28.486 84.5336 27.9443 85.6085 27.9443C87.0642 27.9443 87.792 28.7463 87.792 30.3501V34ZM95.0032 32.1147C94.9355 32.7368 94.6901 33.2319 94.2669 33.6001C93.848 33.964 93.3232 34.146 92.6927 34.146C92.3457 34.146 92.0283 34.0889 91.7405 33.9746C91.4528 33.8604 91.2073 33.7017 91.0042 33.4985C90.8011 33.2954 90.6424 33.0521 90.5281 32.7686C90.4181 32.4808 90.3631 32.1676 90.3631 31.8291V28.8267H89.0238V28.084H90.3631V25.7163H91.2327V28.084H93.7528V28.8267H91.2327V31.8291C91.2327 32.0449 91.2666 32.248 91.3343 32.4385C91.4062 32.6289 91.5036 32.7961 91.6263 32.9399C91.7532 33.0838 91.9056 33.1981 92.0833 33.2827C92.2611 33.3631 92.4642 33.4033 92.6927 33.4033C93.1243 33.4033 93.484 33.27 93.7718 33.0034C94.0638 32.7326 94.2309 32.3835 94.2733 31.9561L95.0032 32.1147ZM101.776 34H100.907V29.7471C100.907 29.4085 100.848 29.1462 100.729 28.96C100.611 28.7738 100.439 28.6807 100.215 28.6807C99.8848 28.6807 99.6415 28.8542 99.4849 29.2012C99.3326 29.5482 99.2564 30.0348 99.2564 30.6611V34H98.3804V29.7471C98.3804 29.4085 98.3191 29.1462 98.1964 28.96C98.0779 28.7738 97.9065 28.6807 97.6822 28.6807C97.4748 28.6807 97.3098 28.742 97.1871 28.8647C97.0644 28.9875 96.967 29.144 96.8951 29.3345C96.8274 29.5249 96.783 29.7365 96.7618 29.9692C96.7406 30.202 96.7301 30.4326 96.7301 30.6611V34H95.8604V28.084H96.7301V28.9409C96.912 28.2765 97.3077 27.9443 97.9171 27.9443C98.4968 27.9443 98.8904 28.2342 99.0977 28.814C99.3855 28.2342 99.7917 27.9443 100.316 27.9443C100.82 27.9443 101.188 28.0946 101.421 28.395C101.658 28.6912 101.776 29.1419 101.776 29.7471V34ZM107.426 34H103.878V33.2573H105.217V26.459H103.878V25.7163H106.093V33.2573H107.426V34Z" fill="#181B26"/>
<path d="M27.167 40C27.167 40 26.5956 43.4286 24.3098 45.7143C22.0241 48 19.167 48 19.167 48H27.167V40Z" fill="white"/>
<path d="M175 40C175 40 175.644 43.4286 178.221 45.7143C180.798 48 184.02 48 184.02 48H175V40Z" fill="white"/>
<line y1="93.68" x2="1015" y2="93.68" stroke="#4946B6" stroke-width="0.64" stroke-dasharray="4 4"/>
<line y1="186.68" x2="1015" y2="186.68" stroke="#4946B6" stroke-width="0.64" stroke-dasharray="4 4"/>
<line x1="46.32" y1="48" x2="46.32" y2="803" stroke="#4946B6" stroke-width="0.64" stroke-dasharray="4 4"/>
<line x1="267.32" y1="48" x2="267.32" y2="803" stroke="#4946B6" stroke-width="0.64" stroke-dasharray="4 4"/>
<path d="M100.253 171H90.3477V143.677H70.25V171H60.3447V108.554H70.25V134.729H90.3477V108.554H100.253V171ZM154.04 131.331H145.187V117.502H136.766V162.1H146.671V171H117.003V162.1H126.86V117.502H118.343V131.331H109.538V108.554H154.04V131.331ZM203.329 171H193.424V128.747L187.155 151.189H179.499L173.326 128.747V171H163.421V108.554H175.192L183.327 136.786L191.462 108.554H203.329V171ZM254.867 171H214.959V108.554H224.864V162.1H254.867V171Z" fill="#F86624"/>
<path d="M103.555 249.907C102.789 252.97 101.768 255.745 100.492 258.233C99.2161 260.722 97.653 262.843 95.8027 264.598C93.9844 266.352 91.847 267.708 89.3906 268.665C86.9661 269.622 84.1748 270.101 81.0166 270.101C76.6462 270.101 72.9456 269.207 69.915 267.421C66.8844 265.603 64.3962 263.194 62.4502 260.195C60.5361 257.165 59.1484 253.719 58.2871 249.859C57.4577 245.967 57.043 241.932 57.043 237.753C57.043 233.574 57.4577 229.538 58.2871 225.646C59.1484 221.755 60.5202 218.325 62.4023 215.358C64.3164 212.392 66.7409 210.015 69.6758 208.229C72.6107 206.41 76.1995 205.501 80.4424 205.501C81.8141 205.501 83.2018 205.676 84.6055 206.027C86.0091 206.378 87.3171 206.921 88.5293 207.654C89.7415 208.356 90.7943 209.233 91.6875 210.286C92.6126 211.339 93.2666 212.551 93.6494 213.923V206.554H102.598V230.192H93.6494C93.6494 228.246 93.4102 226.332 92.9316 224.45C92.4531 222.536 91.6875 220.845 90.6348 219.378C89.582 217.91 88.2581 216.714 86.6631 215.789C85.068 214.864 83.1859 214.401 81.0166 214.401C78.2093 214.401 75.9124 215.087 74.126 216.459C72.3395 217.831 70.904 219.633 69.8193 221.866C68.7347 224.099 67.9691 226.604 67.5225 229.379C67.1077 232.154 66.9004 234.946 66.9004 237.753C66.9004 240.56 67.1077 243.368 67.5225 246.175C67.9691 248.982 68.7188 251.502 69.7715 253.735C70.8242 255.937 72.2598 257.723 74.0781 259.095C75.8965 260.466 78.2093 261.152 81.0166 261.152C85.068 261.152 88.1784 259.86 90.3477 257.276C92.5488 254.692 94.3034 251.215 95.6113 246.845L103.555 249.907ZM152.557 251.869C152.557 254.74 152.062 257.308 151.073 259.573C150.116 261.806 148.792 263.704 147.102 265.268C145.443 266.831 143.449 268.027 141.12 268.856C138.823 269.686 136.367 270.101 133.751 270.101C130.816 270.101 128.168 269.574 125.808 268.521C123.447 267.469 121.421 265.73 119.73 263.306V269H110.83V248.615H119.73C119.73 250.657 120.081 252.459 120.783 254.022C121.517 255.586 122.474 256.91 123.654 257.994C124.835 259.047 126.206 259.86 127.769 260.435C129.333 260.977 130.991 261.248 132.746 261.248C135.713 261.248 138.105 260.562 139.924 259.19C141.742 257.819 142.651 255.633 142.651 252.635C142.651 251.072 142.364 249.732 141.79 248.615C141.248 247.499 140.45 246.51 139.397 245.648C138.377 244.755 137.116 243.99 135.617 243.352C134.118 242.682 132.411 241.98 130.497 241.246C128.232 240.48 125.967 239.619 123.702 238.662C121.437 237.705 119.411 236.525 117.625 235.121C115.839 233.717 114.387 231.995 113.27 229.953C112.154 227.88 111.596 225.28 111.596 222.153C111.596 219.41 112.09 217.017 113.079 214.976C114.1 212.902 115.44 211.163 117.099 209.76C118.789 208.356 120.735 207.303 122.936 206.602C125.17 205.868 127.53 205.501 130.019 205.501C132.89 205.501 135.346 206.107 137.388 207.319C139.461 208.532 141.056 210.143 142.173 212.152V206.554H151.073V225.981H142.173C142.173 222.313 141.2 219.458 139.254 217.416C137.34 215.342 134.756 214.306 131.502 214.306C128.631 214.306 126.238 214.976 124.324 216.315C122.442 217.655 121.501 219.537 121.501 221.962C121.501 223.206 121.74 224.275 122.219 225.168C122.729 226.029 123.447 226.827 124.372 227.561C125.329 228.262 126.525 228.932 127.961 229.57C129.396 230.176 131.055 230.846 132.937 231.58C135.298 232.41 137.643 233.351 139.972 234.403C142.3 235.456 144.39 236.748 146.24 238.279C148.09 239.811 149.606 241.677 150.786 243.878C151.966 246.047 152.557 248.711 152.557 251.869ZM204.095 251.869C204.095 254.74 203.6 257.308 202.611 259.573C201.654 261.806 200.33 263.704 198.64 265.268C196.981 266.831 194.987 268.027 192.658 268.856C190.361 269.686 187.905 270.101 185.289 270.101C182.354 270.101 179.706 269.574 177.346 268.521C174.985 267.469 172.959 265.73 171.268 263.306V269H162.368V248.615H171.268C171.268 250.657 171.619 252.459 172.321 254.022C173.055 255.586 174.012 256.91 175.192 257.994C176.373 259.047 177.744 259.86 179.308 260.435C180.871 260.977 182.53 261.248 184.284 261.248C187.251 261.248 189.643 260.562 191.462 259.19C193.28 257.819 194.189 255.633 194.189 252.635C194.189 251.072 193.902 249.732 193.328 248.615C192.786 247.499 191.988 246.51 190.935 245.648C189.915 244.755 188.655 243.99 187.155 243.352C185.656 242.682 183.949 241.98 182.035 241.246C179.77 240.48 177.505 239.619 175.24 238.662C172.975 237.705 170.949 236.525 169.163 235.121C167.377 233.717 165.925 231.995 164.809 229.953C163.692 227.88 163.134 225.28 163.134 222.153C163.134 219.41 163.628 217.017 164.617 214.976C165.638 212.902 166.978 211.163 168.637 209.76C170.327 208.356 172.273 207.303 174.475 206.602C176.708 205.868 179.068 205.501 181.557 205.501C184.428 205.501 186.884 206.107 188.926 207.319C190.999 208.532 192.594 210.143 193.711 212.152V206.554H202.611V225.981H193.711C193.711 222.313 192.738 219.458 190.792 217.416C188.878 215.342 186.294 214.306 183.04 214.306C180.169 214.306 177.776 214.976 175.862 216.315C173.98 217.655 173.039 219.537 173.039 221.962C173.039 223.206 173.278 224.275 173.757 225.168C174.267 226.029 174.985 226.827 175.91 227.561C176.867 228.262 178.063 228.932 179.499 229.57C180.934 230.176 182.593 230.846 184.476 231.58C186.836 232.41 189.181 233.351 191.51 234.403C193.838 235.456 195.928 236.748 197.778 238.279C199.629 239.811 201.144 241.677 202.324 243.878C203.504 246.047 204.095 248.711 204.095 251.869ZM100.253 343.17C100.253 351.081 98.5622 357.222 95.1807 361.593C91.8311 365.931 86.695 368.101 79.7725 368.101C74.2217 368.101 69.5641 366.649 65.7998 363.746C62.0355 360.811 59.4036 356.441 57.9043 350.635L66.8047 347.285C67.7298 351.018 69.2292 353.937 71.3027 356.042C73.4082 358.116 76.2314 359.152 79.7725 359.152C81.9098 359.152 83.6644 358.722 85.0361 357.86C86.4079 356.967 87.4766 355.787 88.2422 354.319C89.0397 352.852 89.582 351.161 89.8691 349.247C90.1882 347.301 90.3477 345.275 90.3477 343.17V304.554H100.253V343.17ZM152.557 349.869C152.557 352.74 152.062 355.308 151.073 357.573C150.116 359.806 148.792 361.704 147.102 363.268C145.443 364.831 143.449 366.027 141.12 366.856C138.823 367.686 136.367 368.101 133.751 368.101C130.816 368.101 128.168 367.574 125.808 366.521C123.447 365.469 121.421 363.73 119.73 361.306V367H110.83V346.615H119.73C119.73 348.657 120.081 350.459 120.783 352.022C121.517 353.586 122.474 354.91 123.654 355.994C124.835 357.047 126.206 357.86 127.769 358.435C129.333 358.977 130.991 359.248 132.746 359.248C135.713 359.248 138.105 358.562 139.924 357.19C141.742 355.819 142.651 353.633 142.651 350.635C142.651 349.072 142.364 347.732 141.79 346.615C141.248 345.499 140.45 344.51 139.397 343.648C138.377 342.755 137.116 341.99 135.617 341.352C134.118 340.682 132.411 339.98 130.497 339.246C128.232 338.48 125.967 337.619 123.702 336.662C121.437 335.705 119.411 334.525 117.625 333.121C115.839 331.717 114.387 329.995 113.27 327.953C112.154 325.88 111.596 323.28 111.596 320.153C111.596 317.41 112.09 315.017 113.079 312.976C114.1 310.902 115.44 309.163 117.099 307.76C118.789 306.356 120.735 305.303 122.936 304.602C125.17 303.868 127.53 303.501 130.019 303.501C132.89 303.501 135.346 304.107 137.388 305.319C139.461 306.532 141.056 308.143 142.173 310.152V304.554H151.073V323.981H142.173C142.173 320.313 141.2 317.458 139.254 315.416C137.34 313.342 134.756 312.306 131.502 312.306C128.631 312.306 126.238 312.976 124.324 314.315C122.442 315.655 121.501 317.537 121.501 319.962C121.501 321.206 121.74 322.275 122.219 323.168C122.729 324.029 123.447 324.827 124.372 325.561C125.329 326.262 126.525 326.932 127.961 327.57C129.396 328.176 131.055 328.846 132.937 329.58C135.298 330.41 137.643 331.351 139.972 332.403C142.3 333.456 144.39 334.748 146.24 336.279C148.09 337.811 149.606 339.677 150.786 341.878C151.966 344.047 152.557 346.711 152.557 349.869Z" fill="#C7D1D1"/>
<g clip-path="url(#clip0_569_1636)">
<rect x="46" y="93" width="222" height="94" fill="#F86624" fill-opacity="0.04"/>
<path d="M159.94 -3.62928L-51.9164 218.395" stroke="#F86624" stroke-opacity="0.16"/>
<path d="M175.937 -4.00404L-35.9203 218.02" stroke="#F86624" stroke-opacity="0.16"/>
<path d="M191.932 -4.37892L-19.9252 217.645" stroke="#F86624" stroke-opacity="0.16"/>
<path d="M207.927 -4.75379L-3.93004 217.27" stroke="#F86624" stroke-opacity="0.16"/>
<path d="M223.923 -5.12855L12.066 216.896" stroke="#F86624" stroke-opacity="0.16"/>
<path d="M239.919 -5.50343L28.0621 216.521" stroke="#F86624" stroke-opacity="0.16"/>
<path d="M255.914 -5.87818L44.0573 216.146" stroke="#F86624" stroke-opacity="0.16"/>
<path d="M271.909 -6.25306L60.0524 215.771" stroke="#F86624" stroke-opacity="0.16"/>
<path d="M287.905 -6.62794L76.0485 215.396" stroke="#F86624" stroke-opacity="0.16"/>
<path d="M303.901 -7.00269L92.0446 215.021" stroke="#F86624" stroke-opacity="0.16"/>
<path d="M319.897 -7.37757L108.04 214.647" stroke="#F86624" stroke-opacity="0.16"/>
<path d="M335.892 -7.75233L124.035 214.272" stroke="#F86624" stroke-opacity="0.16"/>
<path d="M351.888 -8.12721L140.031 213.897" stroke="#F86624" stroke-opacity="0.16"/>
<path d="M367.884 -8.50208L156.027 213.522" stroke="#F86624" stroke-opacity="0.16"/>
<path d="M383.879 -8.87684L172.022 213.147" stroke="#F86624" stroke-opacity="0.16"/>
<path d="M399.875 -9.25172L188.018 212.772" stroke="#F86624" stroke-opacity="0.16"/>
<path d="M415.87 -9.6266L204.013 212.397" stroke="#F86624" stroke-opacity="0.16"/>
<path d="M431.866 -10.0014L220.009 212.023" stroke="#F86624" stroke-opacity="0.16"/>
<path d="M447.861 -10.3762L236.005 211.648" stroke="#F86624" stroke-opacity="0.16"/>
<path d="M463.857 -10.751L252.001 211.273" stroke="#F86624" stroke-opacity="0.16"/>
<path d="M479.853 -11.1259L267.996 210.898" stroke="#F86624" stroke-opacity="0.16"/>
</g>
<rect x="46.5" y="93.5" width="221" height="93" stroke="#F86624"/>
<rect x="264.8" y="90.8" width="6.4" height="6.4" fill="white" stroke="#F86624" stroke-width="2.4"/>
<rect x="264.8" y="182.8" width="6.4" height="6.4" fill="white" stroke="#F86624" stroke-width="2.4"/>
<rect x="42.8" y="182.8" width="6.4" height="6.4" fill="white" stroke="#F86624" stroke-width="2.4"/>
<rect x="42.8" y="90.8" width="6.4" height="6.4" fill="white" stroke="#F86624" stroke-width="2.4"/>
<g filter="url(#filter0_b_569_1636)">
<rect width="147" height="31" transform="translate(284 204)" fill="black" fill-opacity="0.72"/>
<path d="M294.4 220.988L295.53 220.81C295.593 221.263 295.769 221.61 296.057 221.851C296.349 222.092 296.755 222.213 297.275 222.213C297.8 222.213 298.189 222.107 298.443 221.896C298.697 221.68 298.824 221.428 298.824 221.14C298.824 220.882 298.712 220.679 298.488 220.531C298.331 220.429 297.942 220.3 297.32 220.144C296.482 219.932 295.9 219.75 295.574 219.598C295.253 219.441 295.007 219.227 294.838 218.957C294.673 218.681 294.59 218.379 294.59 218.049C294.59 217.748 294.658 217.471 294.793 217.217C294.933 216.959 295.121 216.745 295.358 216.576C295.536 216.445 295.777 216.335 296.082 216.246C296.391 216.153 296.721 216.106 297.072 216.106C297.601 216.106 298.065 216.183 298.462 216.335C298.864 216.487 299.161 216.695 299.351 216.957C299.542 217.215 299.673 217.562 299.745 217.998L298.627 218.15C298.577 217.803 298.429 217.533 298.183 217.338C297.942 217.143 297.599 217.046 297.155 217.046C296.63 217.046 296.256 217.133 296.031 217.306C295.807 217.48 295.695 217.683 295.695 217.916C295.695 218.064 295.741 218.197 295.834 218.315C295.928 218.438 296.074 218.54 296.272 218.62C296.387 218.662 296.723 218.76 297.282 218.912C298.09 219.128 298.653 219.306 298.97 219.445C299.292 219.581 299.544 219.78 299.726 220.042C299.908 220.304 299.999 220.63 299.999 221.02C299.999 221.4 299.886 221.76 299.662 222.099C299.442 222.433 299.123 222.693 298.704 222.879C298.285 223.061 297.811 223.152 297.282 223.152C296.406 223.152 295.737 222.97 295.276 222.606C294.819 222.243 294.527 221.703 294.4 220.988ZM301.487 225.583V216.259H302.528V217.135C302.773 216.792 303.051 216.536 303.359 216.367C303.668 216.193 304.043 216.106 304.483 216.106C305.059 216.106 305.566 216.255 306.006 216.551C306.447 216.847 306.779 217.266 307.003 217.808C307.227 218.345 307.339 218.935 307.339 219.579C307.339 220.268 307.215 220.89 306.965 221.445C306.72 221.995 306.36 222.418 305.886 222.714C305.416 223.006 304.921 223.152 304.401 223.152C304.02 223.152 303.677 223.072 303.372 222.911C303.072 222.75 302.824 222.547 302.63 222.302V225.583H301.487ZM302.522 219.667C302.522 220.535 302.697 221.176 303.048 221.591C303.4 222.006 303.825 222.213 304.324 222.213C304.832 222.213 305.266 221.999 305.626 221.572C305.99 221.14 306.172 220.474 306.172 219.572C306.172 218.713 305.994 218.07 305.638 217.643C305.287 217.215 304.866 217.001 304.375 217.001C303.888 217.001 303.457 217.23 303.08 217.687C302.708 218.14 302.522 218.8 302.522 219.667ZM313.252 222.168C312.829 222.528 312.421 222.782 312.027 222.93C311.638 223.078 311.219 223.152 310.77 223.152C310.03 223.152 309.461 222.972 309.063 222.613C308.665 222.249 308.466 221.785 308.466 221.223C308.466 220.893 308.54 220.592 308.688 220.321C308.841 220.046 309.037 219.826 309.279 219.661C309.524 219.496 309.799 219.371 310.104 219.287C310.328 219.227 310.667 219.17 311.119 219.115C312.042 219.005 312.721 218.874 313.157 218.722C313.161 218.565 313.163 218.466 313.163 218.423C313.163 217.958 313.055 217.63 312.84 217.439C312.548 217.181 312.114 217.052 311.538 217.052C311.001 217.052 310.603 217.147 310.345 217.338C310.091 217.524 309.903 217.856 309.78 218.334L308.663 218.182C308.764 217.704 308.932 217.319 309.164 217.027C309.397 216.731 309.733 216.504 310.174 216.348C310.614 216.187 311.124 216.106 311.703 216.106C312.279 216.106 312.746 216.174 313.106 216.31C313.466 216.445 313.73 216.616 313.9 216.824C314.069 217.027 314.187 217.285 314.255 217.598C314.293 217.793 314.312 218.144 314.312 218.652V220.175C314.312 221.237 314.336 221.91 314.382 222.194C314.433 222.473 314.53 222.742 314.674 223H313.481C313.362 222.763 313.286 222.486 313.252 222.168ZM313.157 219.617C312.742 219.786 312.12 219.93 311.291 220.048C310.821 220.116 310.489 220.192 310.294 220.277C310.1 220.361 309.949 220.486 309.843 220.651C309.738 220.812 309.685 220.992 309.685 221.191C309.685 221.496 309.799 221.75 310.028 221.953C310.26 222.156 310.599 222.257 311.043 222.257C311.483 222.257 311.875 222.162 312.218 221.972C312.56 221.777 312.812 221.513 312.973 221.178C313.096 220.92 313.157 220.539 313.157 220.036V219.617ZM316.22 223V216.259H317.248V217.217C317.743 216.477 318.458 216.106 319.393 216.106C319.8 216.106 320.172 216.181 320.511 216.329C320.853 216.472 321.109 216.663 321.279 216.9C321.448 217.137 321.566 217.418 321.634 217.744C321.676 217.956 321.698 218.326 321.698 218.855V223H320.555V218.899C320.555 218.434 320.511 218.087 320.422 217.858C320.333 217.626 320.174 217.442 319.946 217.306C319.721 217.167 319.457 217.097 319.152 217.097C318.666 217.097 318.244 217.251 317.889 217.56C317.538 217.869 317.362 218.455 317.362 219.318V223H316.22Z" fill="#F485DC"/>
<g opacity="0.64">
<path d="M335.54 220.562L336.739 220.461C336.828 221.045 337.033 221.485 337.355 221.781C337.681 222.073 338.072 222.219 338.529 222.219C339.079 222.219 339.545 222.012 339.926 221.597C340.307 221.182 340.497 220.632 340.497 219.947C340.497 219.295 340.313 218.781 339.945 218.404C339.581 218.028 339.103 217.839 338.51 217.839C338.142 217.839 337.81 217.924 337.514 218.093C337.217 218.258 336.985 218.474 336.815 218.741L335.743 218.601L336.644 213.821H341.271V214.913H337.558L337.057 217.414C337.615 217.025 338.201 216.83 338.815 216.83C339.627 216.83 340.313 217.111 340.872 217.674C341.43 218.237 341.709 218.961 341.709 219.845C341.709 220.687 341.464 221.415 340.973 222.029C340.376 222.782 339.562 223.159 338.529 223.159C337.683 223.159 336.991 222.922 336.454 222.448C335.92 221.974 335.616 221.345 335.54 220.562ZM348.835 215.973L347.698 216.062C347.597 215.613 347.453 215.288 347.267 215.084C346.958 214.759 346.577 214.596 346.124 214.596C345.76 214.596 345.441 214.697 345.166 214.9C344.806 215.163 344.522 215.546 344.315 216.049C344.108 216.553 344 217.27 343.991 218.201C344.266 217.782 344.603 217.471 345.001 217.268C345.398 217.065 345.815 216.963 346.251 216.963C347.013 216.963 347.66 217.245 348.193 217.808C348.731 218.366 349 219.09 349 219.979C349 220.562 348.873 221.106 348.619 221.61C348.369 222.109 348.024 222.492 347.584 222.759C347.144 223.025 346.645 223.159 346.086 223.159C345.134 223.159 344.357 222.81 343.756 222.111C343.156 221.409 342.855 220.254 342.855 218.646C342.855 216.847 343.187 215.539 343.852 214.723C344.431 214.012 345.212 213.656 346.194 213.656C346.926 213.656 347.525 213.861 347.99 214.272C348.46 214.682 348.741 215.25 348.835 215.973ZM344.169 219.985C344.169 220.378 344.252 220.755 344.417 221.115C344.586 221.474 344.821 221.75 345.121 221.94C345.422 222.126 345.737 222.219 346.067 222.219C346.549 222.219 346.964 222.025 347.311 221.635C347.658 221.246 347.832 220.717 347.832 220.048C347.832 219.405 347.66 218.899 347.318 218.531C346.975 218.159 346.543 217.973 346.023 217.973C345.506 217.973 345.068 218.159 344.709 218.531C344.349 218.899 344.169 219.384 344.169 219.985ZM354.576 223H353.433V215.719C353.158 215.982 352.796 216.244 352.348 216.506C351.904 216.769 351.504 216.965 351.148 217.097V215.992C351.787 215.692 352.346 215.328 352.824 214.9C353.302 214.473 353.641 214.058 353.84 213.656H354.576V223ZM358.28 223V221.699H359.581V223H358.28ZM361.393 220.543L362.536 220.391C362.667 221.039 362.889 221.506 363.202 221.794C363.52 222.077 363.905 222.219 364.357 222.219C364.895 222.219 365.348 222.033 365.716 221.661C366.088 221.288 366.274 220.827 366.274 220.277C366.274 219.752 366.103 219.32 365.76 218.982C365.417 218.639 364.982 218.468 364.453 218.468C364.237 218.468 363.968 218.51 363.646 218.595L363.773 217.592C363.85 217.6 363.911 217.604 363.958 217.604C364.444 217.604 364.882 217.478 365.271 217.224C365.661 216.97 365.855 216.578 365.855 216.049C365.855 215.63 365.714 215.283 365.43 215.008C365.147 214.733 364.781 214.596 364.332 214.596C363.888 214.596 363.517 214.735 363.221 215.015C362.925 215.294 362.735 215.713 362.65 216.271L361.507 216.068C361.647 215.302 361.964 214.71 362.459 214.291C362.955 213.868 363.57 213.656 364.307 213.656C364.814 213.656 365.282 213.766 365.709 213.986C366.137 214.202 366.463 214.498 366.687 214.875C366.916 215.252 367.03 215.652 367.03 216.075C367.03 216.477 366.922 216.843 366.706 217.173C366.49 217.503 366.171 217.765 365.748 217.96C366.298 218.087 366.725 218.351 367.03 218.753C367.334 219.151 367.487 219.651 367.487 220.251C367.487 221.064 367.191 221.754 366.598 222.321C366.006 222.884 365.257 223.165 364.351 223.165C363.534 223.165 362.855 222.922 362.313 222.435C361.776 221.948 361.469 221.318 361.393 220.543ZM368.753 220.562L369.953 220.461C370.042 221.045 370.247 221.485 370.568 221.781C370.894 222.073 371.286 222.219 371.743 222.219C372.293 222.219 372.758 222.012 373.139 221.597C373.52 221.182 373.711 220.632 373.711 219.947C373.711 219.295 373.526 218.781 373.158 218.404C372.794 218.028 372.316 217.839 371.724 217.839C371.356 217.839 371.023 217.924 370.727 218.093C370.431 218.258 370.198 218.474 370.029 218.741L368.956 218.601L369.858 213.821H374.485V214.913H370.772L370.27 217.414C370.829 217.025 371.415 216.83 372.028 216.83C372.841 216.83 373.526 217.111 374.085 217.674C374.644 218.237 374.923 218.961 374.923 219.845C374.923 220.687 374.678 221.415 374.187 222.029C373.59 222.782 372.775 223.159 371.743 223.159C370.896 223.159 370.205 222.922 369.667 222.448C369.134 221.974 368.829 221.345 368.753 220.562Z" fill="white"/>
<path d="M384.095 223L386.558 219.496L384.279 216.259H385.708L386.742 217.839C386.937 218.14 387.093 218.392 387.212 218.595C387.398 218.315 387.569 218.068 387.726 217.852L388.862 216.259H390.227L387.897 219.433L390.405 223H389.002L387.618 220.905L387.25 220.34L385.479 223H384.095Z" fill="white"/>
<path d="M403.843 223H402.701V215.719C402.426 215.982 402.064 216.244 401.615 216.506C401.171 216.769 400.771 216.965 400.416 217.097V215.992C401.055 215.692 401.613 215.328 402.091 214.9C402.569 214.473 402.908 214.058 403.107 213.656H403.843V223ZM412.911 221.902V223H406.76C406.751 222.725 406.796 222.46 406.893 222.207C407.05 221.788 407.299 221.375 407.642 220.969C407.989 220.562 408.489 220.093 409.14 219.56C410.152 218.73 410.835 218.074 411.191 217.592C411.546 217.105 411.724 216.646 411.724 216.214C411.724 215.762 411.561 215.381 411.235 215.072C410.913 214.759 410.492 214.602 409.972 214.602C409.422 214.602 408.982 214.767 408.651 215.097C408.321 215.427 408.154 215.884 408.15 216.468L406.976 216.348C407.056 215.472 407.359 214.805 407.883 214.348C408.408 213.887 409.113 213.656 409.997 213.656C410.89 213.656 411.597 213.904 412.117 214.399C412.638 214.894 412.898 215.508 412.898 216.24C412.898 216.612 412.822 216.978 412.67 217.338C412.517 217.698 412.263 218.076 411.908 218.474C411.557 218.872 410.97 219.418 410.15 220.112C409.464 220.687 409.024 221.079 408.829 221.286C408.635 221.489 408.474 221.694 408.347 221.902H412.911ZM420.201 215.973L419.065 216.062C418.963 215.613 418.819 215.288 418.633 215.084C418.324 214.759 417.943 214.596 417.49 214.596C417.127 214.596 416.807 214.697 416.532 214.9C416.172 215.163 415.889 215.546 415.681 216.049C415.474 216.553 415.366 217.27 415.358 218.201C415.633 217.782 415.969 217.471 416.367 217.268C416.765 217.065 417.182 216.963 417.617 216.963C418.379 216.963 419.027 217.245 419.56 217.808C420.097 218.366 420.366 219.09 420.366 219.979C420.366 220.562 420.239 221.106 419.985 221.61C419.735 222.109 419.391 222.492 418.95 222.759C418.51 223.025 418.011 223.159 417.452 223.159C416.5 223.159 415.724 222.81 415.123 222.111C414.522 221.409 414.221 220.254 414.221 218.646C414.221 216.847 414.554 215.539 415.218 214.723C415.798 214.012 416.579 213.656 417.56 213.656C418.292 213.656 418.891 213.861 419.357 214.272C419.826 214.682 420.108 215.25 420.201 215.973ZM415.535 219.985C415.535 220.378 415.618 220.755 415.783 221.115C415.952 221.474 416.187 221.75 416.488 221.94C416.788 222.126 417.103 222.219 417.433 222.219C417.916 222.219 418.33 222.025 418.677 221.635C419.024 221.246 419.198 220.717 419.198 220.048C419.198 219.405 419.027 218.899 418.684 218.531C418.341 218.159 417.909 217.973 417.389 217.973C416.873 217.973 416.435 218.159 416.075 218.531C415.715 218.899 415.535 219.384 415.535 219.985Z" fill="white"/>
</g>
</g>
<defs>
<filter id="filter0_b_569_1636" x="252" y="172" width="211" height="95" filterUnits="userSpaceOnUse" color-interpolation-filters="sRGB">
<feFlood flood-opacity="0" result="BackgroundImageFix"/>
<feGaussianBlur in="BackgroundImage" stdDeviation="16"/>
<feComposite in2="SourceAlpha" operator="in" result="effect1_backgroundBlur_569_1636"/>
<feBlend mode="normal" in="SourceGraphic" in2="effect1_backgroundBlur_569_1636" result="shape"/>
</filter>
<clipPath id="clip0_569_1636">
<rect x="46" y="93" width="222" height="94" fill="white"/>
</clipPath>
</defs>
</svg>
