<svg width="1628" height="1138" viewBox="0 0 1628 1138" fill="none" xmlns="http://www.w3.org/2000/svg">
<g filter="url(#filter0_d_569_1629)">
<g clip-path="url(#clip0_569_1629)">
<path d="M40 41C578.533 41 880.467 41 1419 41V12C1419 5.37259 1413.63 0 1407 0H52C45.3726 0 40 5.37258 40 12V41Z" fill="url(#paint0_linear_569_1629)" fill-opacity="0.9"/>
<circle cx="63" cy="20" r="5" fill="#E02929"/>
<circle cx="81" cy="20" r="5" fill="#E98B1C"/>
<circle cx="99" cy="20" r="5" fill="#16CF4A"/>
</g>
<path d="M40 41H1420V882C1420 886.418 1416.42 890 1412 890H48C43.5817 890 40 886.418 40 882V41Z" fill="white"/>
<rect opacity="0.57" x="40" y="41" width="1380" height="48" fill="#D4E1E8"/>
<path d="M67.167 63C67.167 57.4772 71.6441 53 77.167 53H205.167C210.69 53 215.167 57.4772 215.167 63V89H67.167V63Z" fill="white"/>
<path d="M199.084 68.0833L193.25 73.9167M193.25 68.0833L199.084 73.9167" stroke="#181B26" stroke-width="0.8" stroke-linecap="round" stroke-linejoin="round"/>
<path d="M84.7153 67.9033H83.5347V66.7163H84.7153V67.9033ZM85.896 75H82.3477V74.2573H83.687V69.8267H82.3477V69.084H84.563V74.2573H85.896V75ZM93.6087 75H92.7327V71.3501C92.7327 70.8211 92.6184 70.4106 92.3899 70.1187C92.1614 69.8267 91.7911 69.6807 91.2791 69.6807C90.9574 69.6807 90.6655 69.7547 90.4031 69.9028C90.1449 70.0509 89.9249 70.2498 89.7429 70.4995C89.561 70.745 89.4213 71.0285 89.324 71.3501C89.2309 71.6675 89.1843 71.9997 89.1843 72.3467V75H88.3147V69.084H89.1843V70.5693C89.6033 69.486 90.3502 68.9443 91.4251 68.9443C92.8808 68.9443 93.6087 69.7463 93.6087 71.3501V75ZM100.445 75H99.5694V74.4541C99.3197 74.6784 99.0446 74.8498 98.7442 74.9683C98.4479 75.0868 98.1432 75.146 97.8301 75.146C97.3604 75.146 96.9393 75.0698 96.5669 74.9175C96.1945 74.7651 95.8793 74.5535 95.6211 74.2827C95.3672 74.0076 95.1704 73.6797 95.0308 73.2988C94.8954 72.918 94.8277 72.5011 94.8277 72.0483C94.8277 71.5998 94.8954 71.1851 95.0308 70.8042C95.1704 70.4191 95.3672 70.0911 95.6211 69.8203C95.8793 69.5452 96.1945 69.3315 96.5669 69.1792C96.9393 69.0226 97.3604 68.9443 97.8301 68.9443C98.1432 68.9443 98.4479 69.0015 98.7442 69.1157C99.0446 69.2257 99.3197 69.3929 99.5694 69.6172V67.459H98.3887V66.7163H100.445V75ZM99.5694 70.4614C99.3197 70.1864 99.0467 69.9875 98.7505 69.8647C98.4585 69.742 98.1475 69.6807 97.8174 69.6807C97.4704 69.6807 97.1636 69.742 96.897 69.8647C96.6346 69.9875 96.4146 70.1546 96.2368 70.3662C96.0591 70.5778 95.9237 70.8275 95.8306 71.1152C95.7417 71.3988 95.6973 71.7098 95.6973 72.0483C95.6973 72.3869 95.7417 72.7 95.8306 72.9878C95.9237 73.2713 96.0591 73.5189 96.2368 73.7305C96.4146 73.9421 96.6346 74.1092 96.897 74.2319C97.1636 74.3547 97.4704 74.416 97.8174 74.416C98.486 74.416 99.07 74.1515 99.5694 73.6226V70.4614ZM102.547 72.3467C102.61 72.973 102.839 73.4723 103.232 73.8447C103.626 74.2171 104.138 74.4033 104.768 74.4033C105.213 74.4033 105.608 74.3123 105.955 74.1304C106.302 73.9484 106.563 73.722 106.736 73.4512L107.345 73.8701C107.049 74.2848 106.696 74.6022 106.285 74.8223C105.875 75.0381 105.369 75.146 104.768 75.146C104.311 75.146 103.892 75.0698 103.512 74.9175C103.131 74.7651 102.801 74.5535 102.521 74.2827C102.246 74.0076 102.032 73.6818 101.88 73.3052C101.728 72.9285 101.652 72.5096 101.652 72.0483C101.652 71.5998 101.719 71.1872 101.855 70.8105C101.994 70.4297 102.193 70.1017 102.451 69.8267C102.714 69.5474 103.031 69.3315 103.404 69.1792C103.776 69.0226 104.193 68.9443 104.654 68.9443C105.158 68.9443 105.598 69.029 105.974 69.1982C106.351 69.3675 106.664 69.6024 106.914 69.9028C107.168 70.1991 107.354 70.5545 107.472 70.9692C107.595 71.384 107.657 71.8431 107.657 72.3467H102.547ZM106.736 71.604C106.639 70.9565 106.404 70.4741 106.032 70.1567C105.659 69.8394 105.2 69.6807 104.654 69.6807C104.375 69.6807 104.117 69.7272 103.88 69.8203C103.643 69.9092 103.433 70.0382 103.251 70.2075C103.069 70.3768 102.917 70.582 102.794 70.8232C102.671 71.0602 102.593 71.3205 102.559 71.604H106.736ZM114.569 75H112.126V74.2319H112.646L111.478 72.5181L110.323 74.2319H110.799V75H108.387V74.2319H109.307L110.932 71.9976L109.371 69.8647H108.514V69.084H110.945V69.8647H110.399L111.478 71.4771L112.57 69.8647H111.973V69.084H114.43V69.8647H113.598L112.037 71.9976L113.662 74.2319H114.569V75ZM118.899 75H117.718V73.8193H118.899V75ZM127.792 75H126.916V71.3501C126.916 70.8211 126.802 70.4106 126.573 70.1187C126.345 69.8267 125.975 69.6807 125.462 69.6807C125.141 69.6807 124.849 69.7547 124.586 69.9028C124.328 70.0509 124.108 70.2498 123.926 70.4995C123.744 70.745 123.605 71.0285 123.507 71.3501C123.414 71.6675 123.368 71.9997 123.368 72.3467V75H122.498V66.7163H123.368V70.5693C123.787 69.486 124.534 68.9443 125.608 68.9443C127.064 68.9443 127.792 69.7463 127.792 71.3501V75ZM135.003 73.1147C134.936 73.7368 134.69 74.2319 134.267 74.6001C133.848 74.964 133.323 75.146 132.693 75.146C132.346 75.146 132.028 75.0889 131.741 74.9746C131.453 74.8604 131.207 74.7017 131.004 74.4985C130.801 74.2954 130.642 74.0521 130.528 73.7686C130.418 73.4808 130.363 73.1676 130.363 72.8291V69.8267H129.024V69.084H130.363V66.7163H131.233V69.084H133.753V69.8267H131.233V72.8291C131.233 73.0449 131.267 73.248 131.334 73.4385C131.406 73.6289 131.504 73.7961 131.626 73.9399C131.753 74.0838 131.906 74.1981 132.083 74.2827C132.261 74.3631 132.464 74.4033 132.693 74.4033C133.124 74.4033 133.484 74.27 133.772 74.0034C134.064 73.7326 134.231 73.3835 134.273 72.9561L135.003 73.1147ZM141.776 75H140.907V70.7471C140.907 70.4085 140.848 70.1462 140.729 69.96C140.611 69.7738 140.439 69.6807 140.215 69.6807C139.885 69.6807 139.642 69.8542 139.485 70.2012C139.333 70.5482 139.256 71.0348 139.256 71.6611V75H138.38V70.7471C138.38 70.4085 138.319 70.1462 138.196 69.96C138.078 69.7738 137.906 69.6807 137.682 69.6807C137.475 69.6807 137.31 69.742 137.187 69.8647C137.064 69.9875 136.967 70.144 136.895 70.3345C136.827 70.5249 136.783 70.7365 136.762 70.9692C136.741 71.202 136.73 71.4326 136.73 71.6611V75H135.86V69.084H136.73V69.9409C136.912 69.2765 137.308 68.9443 137.917 68.9443C138.497 68.9443 138.89 69.2342 139.098 69.814C139.385 69.2342 139.792 68.9443 140.316 68.9443C140.82 68.9443 141.188 69.0946 141.421 69.395C141.658 69.6912 141.776 70.1419 141.776 70.7471V75ZM147.426 75H143.878V74.2573H145.217V67.459H143.878V66.7163H146.093V74.2573H147.426V75Z" fill="#181B26"/>
<path d="M67.167 81C67.167 81 66.5956 84.4286 64.3098 86.7143C62.0241 89 59.167 89 59.167 89H67.167V81Z" fill="white"/>
<path d="M215 81C215 81 215.644 84.4286 218.221 86.7143C220.798 89 224.02 89 224.02 89H215V81Z" fill="white"/>
<line x1="40" y1="134.68" x2="1055" y2="134.68" stroke="#4946B6" stroke-width="0.64" stroke-dasharray="4 4"/>
<line x1="40" y1="227.68" x2="1055" y2="227.68" stroke="#4946B6" stroke-width="0.64" stroke-dasharray="4 4"/>
<line x1="86.32" y1="89" x2="86.32" y2="844" stroke="#4946B6" stroke-width="0.64" stroke-dasharray="4 4"/>
<line x1="307.32" y1="89" x2="307.32" y2="844" stroke="#4946B6" stroke-width="0.64" stroke-dasharray="4 4"/>
<path d="M140.253 212H130.348V184.677H110.25V212H100.345V149.554H110.25V175.729H130.348V149.554H140.253V212ZM194.04 172.331H185.187V158.502H176.766V203.1H186.671V212H157.003V203.1H166.86V158.502H158.343V172.331H149.538V149.554H194.04V172.331ZM243.329 212H233.424V169.747L227.155 192.189H219.499L213.326 169.747V212H203.421V149.554H215.192L223.327 177.786L231.462 149.554H243.329V212ZM294.867 212H254.959V149.554H264.864V203.1H294.867V212Z" fill="#F86624"/>
<path d="M143.555 290.907C142.789 293.97 141.768 296.745 140.492 299.233C139.216 301.722 137.653 303.843 135.803 305.598C133.984 307.352 131.847 308.708 129.391 309.665C126.966 310.622 124.175 311.101 121.017 311.101C116.646 311.101 112.946 310.207 109.915 308.421C106.884 306.603 104.396 304.194 102.45 301.195C100.536 298.165 99.1484 294.719 98.2871 290.859C97.4577 286.967 97.043 282.932 97.043 278.753C97.043 274.574 97.4577 270.538 98.2871 266.646C99.1484 262.755 100.52 259.325 102.402 256.358C104.316 253.392 106.741 251.015 109.676 249.229C112.611 247.41 116.2 246.501 120.442 246.501C121.814 246.501 123.202 246.676 124.605 247.027C126.009 247.378 127.317 247.921 128.529 248.654C129.742 249.356 130.794 250.233 131.688 251.286C132.613 252.339 133.267 253.551 133.649 254.923V247.554H142.598V271.192H133.649C133.649 269.246 133.41 267.332 132.932 265.45C132.453 263.536 131.688 261.845 130.635 260.378C129.582 258.91 128.258 257.714 126.663 256.789C125.068 255.864 123.186 255.401 121.017 255.401C118.209 255.401 115.912 256.087 114.126 257.459C112.34 258.831 110.904 260.633 109.819 262.866C108.735 265.099 107.969 267.604 107.522 270.379C107.108 273.154 106.9 275.946 106.9 278.753C106.9 281.56 107.108 284.368 107.522 287.175C107.969 289.982 108.719 292.502 109.771 294.735C110.824 296.937 112.26 298.723 114.078 300.095C115.896 301.466 118.209 302.152 121.017 302.152C125.068 302.152 128.178 300.86 130.348 298.276C132.549 295.692 134.303 292.215 135.611 287.845L143.555 290.907ZM192.557 292.869C192.557 295.74 192.062 298.308 191.073 300.573C190.116 302.806 188.792 304.704 187.102 306.268C185.443 307.831 183.449 309.027 181.12 309.856C178.823 310.686 176.367 311.101 173.751 311.101C170.816 311.101 168.168 310.574 165.808 309.521C163.447 308.469 161.421 306.73 159.73 304.306V310H150.83V289.615H159.73C159.73 291.657 160.081 293.459 160.783 295.022C161.517 296.586 162.474 297.91 163.654 298.994C164.835 300.047 166.206 300.86 167.769 301.435C169.333 301.977 170.991 302.248 172.746 302.248C175.713 302.248 178.105 301.562 179.924 300.19C181.742 298.819 182.651 296.633 182.651 293.635C182.651 292.072 182.364 290.732 181.79 289.615C181.248 288.499 180.45 287.51 179.397 286.648C178.377 285.755 177.116 284.99 175.617 284.352C174.118 283.682 172.411 282.98 170.497 282.246C168.232 281.48 165.967 280.619 163.702 279.662C161.437 278.705 159.411 277.525 157.625 276.121C155.839 274.717 154.387 272.995 153.27 270.953C152.154 268.88 151.596 266.28 151.596 263.153C151.596 260.41 152.09 258.017 153.079 255.976C154.1 253.902 155.44 252.163 157.099 250.76C158.789 249.356 160.735 248.303 162.936 247.602C165.17 246.868 167.53 246.501 170.019 246.501C172.89 246.501 175.346 247.107 177.388 248.319C179.461 249.532 181.056 251.143 182.173 253.152V247.554H191.073V266.981H182.173C182.173 263.313 181.2 260.458 179.254 258.416C177.34 256.342 174.756 255.306 171.502 255.306C168.631 255.306 166.238 255.976 164.324 257.315C162.442 258.655 161.501 260.537 161.501 262.962C161.501 264.206 161.74 265.275 162.219 266.168C162.729 267.029 163.447 267.827 164.372 268.561C165.329 269.262 166.525 269.932 167.961 270.57C169.396 271.176 171.055 271.846 172.937 272.58C175.298 273.41 177.643 274.351 179.972 275.403C182.3 276.456 184.39 277.748 186.24 279.279C188.09 280.811 189.606 282.677 190.786 284.878C191.966 287.047 192.557 289.711 192.557 292.869ZM244.095 292.869C244.095 295.74 243.6 298.308 242.611 300.573C241.654 302.806 240.33 304.704 238.64 306.268C236.981 307.831 234.987 309.027 232.658 309.856C230.361 310.686 227.905 311.101 225.289 311.101C222.354 311.101 219.706 310.574 217.346 309.521C214.985 308.469 212.959 306.73 211.268 304.306V310H202.368V289.615H211.268C211.268 291.657 211.619 293.459 212.321 295.022C213.055 296.586 214.012 297.91 215.192 298.994C216.373 300.047 217.744 300.86 219.308 301.435C220.871 301.977 222.53 302.248 224.284 302.248C227.251 302.248 229.643 301.562 231.462 300.19C233.28 298.819 234.189 296.633 234.189 293.635C234.189 292.072 233.902 290.732 233.328 289.615C232.786 288.499 231.988 287.51 230.935 286.648C229.915 285.755 228.655 284.99 227.155 284.352C225.656 283.682 223.949 282.98 222.035 282.246C219.77 281.48 217.505 280.619 215.24 279.662C212.975 278.705 210.949 277.525 209.163 276.121C207.377 274.717 205.925 272.995 204.809 270.953C203.692 268.88 203.134 266.28 203.134 263.153C203.134 260.41 203.628 258.017 204.617 255.976C205.638 253.902 206.978 252.163 208.637 250.76C210.327 249.356 212.273 248.303 214.475 247.602C216.708 246.868 219.068 246.501 221.557 246.501C224.428 246.501 226.884 247.107 228.926 248.319C230.999 249.532 232.594 251.143 233.711 253.152V247.554H242.611V266.981H233.711C233.711 263.313 232.738 260.458 230.792 258.416C228.878 256.342 226.294 255.306 223.04 255.306C220.169 255.306 217.776 255.976 215.862 257.315C213.98 258.655 213.039 260.537 213.039 262.962C213.039 264.206 213.278 265.275 213.757 266.168C214.267 267.029 214.985 267.827 215.91 268.561C216.867 269.262 218.063 269.932 219.499 270.57C220.934 271.176 222.593 271.846 224.476 272.58C226.836 273.41 229.181 274.351 231.51 275.403C233.838 276.456 235.928 277.748 237.778 279.279C239.629 280.811 241.144 282.677 242.324 284.878C243.504 287.047 244.095 289.711 244.095 292.869ZM140.253 384.17C140.253 392.081 138.562 398.222 135.181 402.593C131.831 406.931 126.695 409.101 119.772 409.101C114.222 409.101 109.564 407.649 105.8 404.746C102.035 401.811 99.4036 397.441 97.9043 391.635L106.805 388.285C107.73 392.018 109.229 394.937 111.303 397.042C113.408 399.116 116.231 400.152 119.772 400.152C121.91 400.152 123.664 399.722 125.036 398.86C126.408 397.967 127.477 396.787 128.242 395.319C129.04 393.852 129.582 392.161 129.869 390.247C130.188 388.301 130.348 386.275 130.348 384.17V345.554H140.253V384.17ZM192.557 390.869C192.557 393.74 192.062 396.308 191.073 398.573C190.116 400.806 188.792 402.704 187.102 404.268C185.443 405.831 183.449 407.027 181.12 407.856C178.823 408.686 176.367 409.101 173.751 409.101C170.816 409.101 168.168 408.574 165.808 407.521C163.447 406.469 161.421 404.73 159.73 402.306V408H150.83V387.615H159.73C159.73 389.657 160.081 391.459 160.783 393.022C161.517 394.586 162.474 395.91 163.654 396.994C164.835 398.047 166.206 398.86 167.769 399.435C169.333 399.977 170.991 400.248 172.746 400.248C175.713 400.248 178.105 399.562 179.924 398.19C181.742 396.819 182.651 394.633 182.651 391.635C182.651 390.072 182.364 388.732 181.79 387.615C181.248 386.499 180.45 385.51 179.397 384.648C178.377 383.755 177.116 382.99 175.617 382.352C174.118 381.682 172.411 380.98 170.497 380.246C168.232 379.48 165.967 378.619 163.702 377.662C161.437 376.705 159.411 375.525 157.625 374.121C155.839 372.717 154.387 370.995 153.27 368.953C152.154 366.88 151.596 364.28 151.596 361.153C151.596 358.41 152.09 356.017 153.079 353.976C154.1 351.902 155.44 350.163 157.099 348.76C158.789 347.356 160.735 346.303 162.936 345.602C165.17 344.868 167.53 344.501 170.019 344.501C172.89 344.501 175.346 345.107 177.388 346.319C179.461 347.532 181.056 349.143 182.173 351.152V345.554H191.073V364.981H182.173C182.173 361.313 181.2 358.458 179.254 356.416C177.34 354.342 174.756 353.306 171.502 353.306C168.631 353.306 166.238 353.976 164.324 355.315C162.442 356.655 161.501 358.537 161.501 360.962C161.501 362.206 161.74 363.275 162.219 364.168C162.729 365.029 163.447 365.827 164.372 366.561C165.329 367.262 166.525 367.932 167.961 368.57C169.396 369.176 171.055 369.846 172.937 370.58C175.298 371.41 177.643 372.351 179.972 373.403C182.3 374.456 184.39 375.748 186.24 377.279C188.09 378.811 189.606 380.677 190.786 382.878C191.966 385.047 192.557 387.711 192.557 390.869Z" fill="#C7D1D1"/>
<g clip-path="url(#clip1_569_1629)">
<rect x="86" y="134" width="222" height="94" fill="#F86624" fill-opacity="0.04"/>
<path d="M199.94 37.3707L-11.9164 259.395" stroke="#F86624" stroke-opacity="0.16"/>
<path d="M215.937 36.9959L4.07972 259.02" stroke="#F86624" stroke-opacity="0.16"/>
<path d="M231.932 36.6211L20.0748 258.645" stroke="#F86624" stroke-opacity="0.16"/>
<path d="M247.927 36.2463L36.07 258.27" stroke="#F86624" stroke-opacity="0.16"/>
<path d="M263.923 35.8714L52.066 257.895" stroke="#F86624" stroke-opacity="0.16"/>
<path d="M279.919 35.4966L68.0621 257.521" stroke="#F86624" stroke-opacity="0.16"/>
<path d="M295.914 35.1218L84.0573 257.146" stroke="#F86624" stroke-opacity="0.16"/>
<path d="M311.909 34.7469L100.052 256.771" stroke="#F86624" stroke-opacity="0.16"/>
<path d="M327.905 34.3721L116.048 256.396" stroke="#F86624" stroke-opacity="0.16"/>
<path d="M343.901 33.9973L132.045 256.021" stroke="#F86624" stroke-opacity="0.16"/>
<path d="M359.897 33.6224L148.04 255.647" stroke="#F86624" stroke-opacity="0.16"/>
<path d="M375.892 33.2476L164.035 255.272" stroke="#F86624" stroke-opacity="0.16"/>
<path d="M391.888 32.8728L180.031 254.897" stroke="#F86624" stroke-opacity="0.16"/>
<path d="M407.884 32.4979L196.027 254.522" stroke="#F86624" stroke-opacity="0.16"/>
<path d="M423.879 32.1231L212.022 254.147" stroke="#F86624" stroke-opacity="0.16"/>
<path d="M439.875 31.7483L228.018 253.772" stroke="#F86624" stroke-opacity="0.16"/>
<path d="M455.87 31.3735L244.013 253.398" stroke="#F86624" stroke-opacity="0.16"/>
<path d="M471.866 30.9986L260.009 253.023" stroke="#F86624" stroke-opacity="0.16"/>
<path d="M487.861 30.6238L276.005 252.648" stroke="#F86624" stroke-opacity="0.16"/>
<path d="M503.857 30.249L292.001 252.273" stroke="#F86624" stroke-opacity="0.16"/>
<path d="M519.853 29.8741L307.996 251.898" stroke="#F86624" stroke-opacity="0.16"/>
</g>
<rect x="86.5" y="134.5" width="221" height="93" stroke="#F86624"/>
<rect x="304.8" y="131.8" width="6.4" height="6.4" fill="white" stroke="#F86624" stroke-width="2.4"/>
<rect x="304.8" y="223.8" width="6.4" height="6.4" fill="white" stroke="#F86624" stroke-width="2.4"/>
<rect x="82.8" y="223.8" width="6.4" height="6.4" fill="white" stroke="#F86624" stroke-width="2.4"/>
<rect x="82.8" y="131.8" width="6.4" height="6.4" fill="white" stroke="#F86624" stroke-width="2.4"/>
<g filter="url(#filter1_b_569_1629)">
<rect width="147" height="31" transform="translate(324 245)" fill="black" fill-opacity="0.72"/>
<path d="M334.4 261.988L335.53 261.81C335.593 262.263 335.769 262.61 336.057 262.851C336.349 263.092 336.755 263.213 337.275 263.213C337.8 263.213 338.189 263.107 338.443 262.896C338.697 262.68 338.824 262.428 338.824 262.14C338.824 261.882 338.712 261.679 338.488 261.531C338.331 261.429 337.942 261.3 337.32 261.144C336.482 260.932 335.9 260.75 335.574 260.598C335.253 260.441 335.007 260.227 334.838 259.957C334.673 259.681 334.59 259.379 334.59 259.049C334.59 258.748 334.658 258.471 334.793 258.217C334.933 257.959 335.121 257.745 335.358 257.576C335.536 257.445 335.777 257.335 336.082 257.246C336.391 257.153 336.721 257.106 337.072 257.106C337.601 257.106 338.065 257.183 338.462 257.335C338.864 257.487 339.161 257.695 339.351 257.957C339.542 258.215 339.673 258.562 339.745 258.998L338.627 259.15C338.577 258.803 338.429 258.533 338.183 258.338C337.942 258.143 337.599 258.046 337.155 258.046C336.63 258.046 336.256 258.133 336.031 258.306C335.807 258.48 335.695 258.683 335.695 258.916C335.695 259.064 335.741 259.197 335.834 259.315C335.928 259.438 336.074 259.54 336.272 259.62C336.387 259.662 336.723 259.76 337.282 259.912C338.09 260.128 338.653 260.306 338.97 260.445C339.292 260.581 339.544 260.78 339.726 261.042C339.908 261.304 339.999 261.63 339.999 262.02C339.999 262.4 339.886 262.76 339.662 263.099C339.442 263.433 339.123 263.693 338.704 263.879C338.285 264.061 337.811 264.152 337.282 264.152C336.406 264.152 335.737 263.97 335.276 263.606C334.819 263.243 334.527 262.703 334.4 261.988ZM341.487 266.583V257.259H342.528V258.135C342.773 257.792 343.051 257.536 343.359 257.367C343.668 257.193 344.043 257.106 344.483 257.106C345.059 257.106 345.566 257.255 346.006 257.551C346.447 257.847 346.779 258.266 347.003 258.808C347.227 259.345 347.339 259.935 347.339 260.579C347.339 261.268 347.215 261.89 346.965 262.445C346.72 262.995 346.36 263.418 345.886 263.714C345.416 264.006 344.921 264.152 344.401 264.152C344.02 264.152 343.677 264.072 343.372 263.911C343.072 263.75 342.824 263.547 342.63 263.302V266.583H341.487ZM342.522 260.667C342.522 261.535 342.697 262.176 343.048 262.591C343.4 263.006 343.825 263.213 344.324 263.213C344.832 263.213 345.266 262.999 345.626 262.572C345.99 262.14 346.172 261.474 346.172 260.572C346.172 259.713 345.994 259.07 345.638 258.643C345.287 258.215 344.866 258.001 344.375 258.001C343.888 258.001 343.457 258.23 343.08 258.687C342.708 259.14 342.522 259.8 342.522 260.667ZM353.252 263.168C352.829 263.528 352.421 263.782 352.027 263.93C351.638 264.078 351.219 264.152 350.77 264.152C350.03 264.152 349.461 263.972 349.063 263.613C348.665 263.249 348.466 262.785 348.466 262.223C348.466 261.893 348.54 261.592 348.688 261.321C348.841 261.046 349.037 260.826 349.279 260.661C349.524 260.496 349.799 260.371 350.104 260.287C350.328 260.227 350.667 260.17 351.119 260.115C352.042 260.005 352.721 259.874 353.157 259.722C353.161 259.565 353.163 259.466 353.163 259.423C353.163 258.958 353.055 258.63 352.84 258.439C352.548 258.181 352.114 258.052 351.538 258.052C351.001 258.052 350.603 258.147 350.345 258.338C350.091 258.524 349.903 258.856 349.78 259.334L348.663 259.182C348.764 258.704 348.932 258.319 349.164 258.027C349.397 257.731 349.733 257.504 350.174 257.348C350.614 257.187 351.124 257.106 351.703 257.106C352.279 257.106 352.746 257.174 353.106 257.31C353.466 257.445 353.73 257.616 353.9 257.824C354.069 258.027 354.187 258.285 354.255 258.598C354.293 258.793 354.312 259.144 354.312 259.652V261.175C354.312 262.237 354.336 262.91 354.382 263.194C354.433 263.473 354.53 263.742 354.674 264H353.481C353.362 263.763 353.286 263.486 353.252 263.168ZM353.157 260.617C352.742 260.786 352.12 260.93 351.291 261.048C350.821 261.116 350.489 261.192 350.294 261.277C350.1 261.361 349.949 261.486 349.843 261.651C349.738 261.812 349.685 261.992 349.685 262.191C349.685 262.496 349.799 262.75 350.028 262.953C350.26 263.156 350.599 263.257 351.043 263.257C351.483 263.257 351.875 263.162 352.218 262.972C352.56 262.777 352.812 262.513 352.973 262.178C353.096 261.92 353.157 261.539 353.157 261.036V260.617ZM356.22 264V257.259H357.248V258.217C357.743 257.477 358.458 257.106 359.393 257.106C359.8 257.106 360.172 257.181 360.511 257.329C360.853 257.472 361.109 257.663 361.279 257.9C361.448 258.137 361.566 258.418 361.634 258.744C361.676 258.956 361.698 259.326 361.698 259.855V264H360.555V259.899C360.555 259.434 360.511 259.087 360.422 258.858C360.333 258.626 360.174 258.442 359.946 258.306C359.721 258.167 359.457 258.097 359.152 258.097C358.666 258.097 358.244 258.251 357.889 258.56C357.538 258.869 357.362 259.455 357.362 260.318V264H356.22Z" fill="#F485DC"/>
<g opacity="0.64">
<path d="M375.54 261.562L376.739 261.461C376.828 262.045 377.033 262.485 377.355 262.781C377.681 263.073 378.072 263.219 378.529 263.219C379.079 263.219 379.545 263.012 379.926 262.597C380.307 262.182 380.497 261.632 380.497 260.947C380.497 260.295 380.313 259.781 379.945 259.404C379.581 259.028 379.103 258.839 378.51 258.839C378.142 258.839 377.81 258.924 377.514 259.093C377.217 259.258 376.985 259.474 376.815 259.741L375.743 259.601L376.644 254.821H381.271V255.913H377.558L377.057 258.414C377.615 258.025 378.201 257.83 378.815 257.83C379.627 257.83 380.313 258.111 380.872 258.674C381.43 259.237 381.709 259.961 381.709 260.845C381.709 261.687 381.464 262.415 380.973 263.029C380.376 263.782 379.562 264.159 378.529 264.159C377.683 264.159 376.991 263.922 376.454 263.448C375.92 262.974 375.616 262.345 375.54 261.562ZM388.835 256.973L387.698 257.062C387.597 256.613 387.453 256.288 387.267 256.084C386.958 255.759 386.577 255.596 386.124 255.596C385.76 255.596 385.441 255.697 385.166 255.9C384.806 256.163 384.522 256.546 384.315 257.049C384.108 257.553 384 258.27 383.991 259.201C384.266 258.782 384.603 258.471 385.001 258.268C385.398 258.065 385.815 257.963 386.251 257.963C387.013 257.963 387.66 258.245 388.193 258.808C388.731 259.366 389 260.09 389 260.979C389 261.562 388.873 262.106 388.619 262.61C388.369 263.109 388.024 263.492 387.584 263.759C387.144 264.025 386.645 264.159 386.086 264.159C385.134 264.159 384.357 263.81 383.756 263.111C383.156 262.409 382.855 261.254 382.855 259.646C382.855 257.847 383.187 256.539 383.852 255.723C384.431 255.012 385.212 254.656 386.194 254.656C386.926 254.656 387.525 254.861 387.99 255.272C388.46 255.682 388.741 256.25 388.835 256.973ZM384.169 260.985C384.169 261.378 384.252 261.755 384.417 262.115C384.586 262.474 384.821 262.75 385.121 262.94C385.422 263.126 385.737 263.219 386.067 263.219C386.549 263.219 386.964 263.025 387.311 262.635C387.658 262.246 387.832 261.717 387.832 261.048C387.832 260.405 387.66 259.899 387.318 259.531C386.975 259.159 386.543 258.973 386.023 258.973C385.506 258.973 385.068 259.159 384.709 259.531C384.349 259.899 384.169 260.384 384.169 260.985ZM394.576 264H393.433V256.719C393.158 256.982 392.796 257.244 392.348 257.506C391.904 257.769 391.504 257.965 391.148 258.097V256.992C391.787 256.692 392.346 256.328 392.824 255.9C393.302 255.473 393.641 255.058 393.84 254.656H394.576V264ZM398.28 264V262.699H399.581V264H398.28ZM401.393 261.543L402.536 261.391C402.667 262.039 402.889 262.506 403.202 262.794C403.52 263.077 403.905 263.219 404.357 263.219C404.895 263.219 405.348 263.033 405.716 262.661C406.088 262.288 406.274 261.827 406.274 261.277C406.274 260.752 406.103 260.32 405.76 259.982C405.417 259.639 404.982 259.468 404.453 259.468C404.237 259.468 403.968 259.51 403.646 259.595L403.773 258.592C403.85 258.6 403.911 258.604 403.958 258.604C404.444 258.604 404.882 258.478 405.271 258.224C405.661 257.97 405.855 257.578 405.855 257.049C405.855 256.63 405.714 256.283 405.43 256.008C405.147 255.733 404.781 255.596 404.332 255.596C403.888 255.596 403.517 255.735 403.221 256.015C402.925 256.294 402.735 256.713 402.65 257.271L401.507 257.068C401.647 256.302 401.964 255.71 402.459 255.291C402.955 254.868 403.57 254.656 404.307 254.656C404.814 254.656 405.282 254.766 405.709 254.986C406.137 255.202 406.463 255.498 406.687 255.875C406.916 256.252 407.03 256.652 407.03 257.075C407.03 257.477 406.922 257.843 406.706 258.173C406.49 258.503 406.171 258.765 405.748 258.96C406.298 259.087 406.725 259.351 407.03 259.753C407.334 260.151 407.487 260.651 407.487 261.251C407.487 262.064 407.191 262.754 406.598 263.321C406.006 263.884 405.257 264.165 404.351 264.165C403.534 264.165 402.855 263.922 402.313 263.435C401.776 262.948 401.469 262.318 401.393 261.543ZM408.753 261.562L409.953 261.461C410.042 262.045 410.247 262.485 410.568 262.781C410.894 263.073 411.286 263.219 411.743 263.219C412.293 263.219 412.758 263.012 413.139 262.597C413.52 262.182 413.711 261.632 413.711 260.947C413.711 260.295 413.526 259.781 413.158 259.404C412.794 259.028 412.316 258.839 411.724 258.839C411.356 258.839 411.023 258.924 410.727 259.093C410.431 259.258 410.198 259.474 410.029 259.741L408.956 259.601L409.858 254.821H414.485V255.913H410.772L410.27 258.414C410.829 258.025 411.415 257.83 412.028 257.83C412.841 257.83 413.526 258.111 414.085 258.674C414.644 259.237 414.923 259.961 414.923 260.845C414.923 261.687 414.678 262.415 414.187 263.029C413.59 263.782 412.775 264.159 411.743 264.159C410.896 264.159 410.205 263.922 409.667 263.448C409.134 262.974 408.829 262.345 408.753 261.562Z" fill="white"/>
<path d="M424.095 264L426.558 260.496L424.279 257.259H425.708L426.742 258.839C426.937 259.14 427.093 259.392 427.212 259.595C427.398 259.315 427.569 259.068 427.726 258.852L428.862 257.259H430.227L427.897 260.433L430.405 264H429.002L427.618 261.905L427.25 261.34L425.479 264H424.095Z" fill="white"/>
<path d="M443.843 264H442.701V256.719C442.426 256.982 442.064 257.244 441.615 257.506C441.171 257.769 440.771 257.965 440.416 258.097V256.992C441.055 256.692 441.613 256.328 442.091 255.9C442.569 255.473 442.908 255.058 443.107 254.656H443.843V264ZM452.911 262.902V264H446.76C446.751 263.725 446.796 263.46 446.893 263.207C447.05 262.788 447.299 262.375 447.642 261.969C447.989 261.562 448.489 261.093 449.14 260.56C450.152 259.73 450.835 259.074 451.191 258.592C451.546 258.105 451.724 257.646 451.724 257.214C451.724 256.762 451.561 256.381 451.235 256.072C450.913 255.759 450.492 255.602 449.972 255.602C449.422 255.602 448.982 255.767 448.651 256.097C448.321 256.427 448.154 256.884 448.15 257.468L446.976 257.348C447.056 256.472 447.359 255.805 447.883 255.348C448.408 254.887 449.113 254.656 449.997 254.656C450.89 254.656 451.597 254.904 452.117 255.399C452.638 255.894 452.898 256.508 452.898 257.24C452.898 257.612 452.822 257.978 452.67 258.338C452.517 258.698 452.263 259.076 451.908 259.474C451.557 259.872 450.97 260.418 450.15 261.112C449.464 261.687 449.024 262.079 448.829 262.286C448.635 262.489 448.474 262.694 448.347 262.902H452.911ZM460.201 256.973L459.065 257.062C458.963 256.613 458.819 256.288 458.633 256.084C458.324 255.759 457.943 255.596 457.49 255.596C457.127 255.596 456.807 255.697 456.532 255.9C456.172 256.163 455.889 256.546 455.681 257.049C455.474 257.553 455.366 258.27 455.358 259.201C455.633 258.782 455.969 258.471 456.367 258.268C456.765 258.065 457.182 257.963 457.617 257.963C458.379 257.963 459.027 258.245 459.56 258.808C460.097 259.366 460.366 260.09 460.366 260.979C460.366 261.562 460.239 262.106 459.985 262.61C459.735 263.109 459.391 263.492 458.95 263.759C458.51 264.025 458.011 264.159 457.452 264.159C456.5 264.159 455.724 263.81 455.123 263.111C454.522 262.409 454.221 261.254 454.221 259.646C454.221 257.847 454.554 256.539 455.218 255.723C455.798 255.012 456.579 254.656 457.56 254.656C458.292 254.656 458.891 254.861 459.357 255.272C459.826 255.682 460.108 256.25 460.201 256.973ZM455.535 260.985C455.535 261.378 455.618 261.755 455.783 262.115C455.952 262.474 456.187 262.75 456.488 262.94C456.788 263.126 457.103 263.219 457.433 263.219C457.916 263.219 458.33 263.025 458.677 262.635C459.024 262.246 459.198 261.717 459.198 261.048C459.198 260.405 459.027 259.899 458.684 259.531C458.341 259.159 457.909 258.973 457.389 258.973C456.873 258.973 456.435 259.159 456.075 259.531C455.715 259.899 455.535 260.384 455.535 260.985Z" fill="white"/>
</g>
</g>
</g>
<defs>
<filter id="filter0_d_569_1629" x="0" y="0" width="1628" height="1138" filterUnits="userSpaceOnUse" color-interpolation-filters="sRGB">
<feFlood flood-opacity="0" result="BackgroundImageFix"/>
<feColorMatrix in="SourceAlpha" type="matrix" values="0 0 0 0 0 0 0 0 0 0 0 0 0 0 0 0 0 0 127 0" result="hardAlpha"/>
<feOffset dx="84" dy="124"/>
<feGaussianBlur stdDeviation="62"/>
<feComposite in2="hardAlpha" operator="out"/>
<feColorMatrix type="matrix" values="0 0 0 0 0.369444 0 0 0 0 0.436285 0 0 0 0 0.466667 0 0 0 0.32 0"/>
<feBlend mode="normal" in2="BackgroundImageFix" result="effect1_dropShadow_569_1629"/>
<feBlend mode="normal" in="SourceGraphic" in2="effect1_dropShadow_569_1629" result="shape"/>
</filter>
<filter id="filter1_b_569_1629" x="292" y="213" width="211" height="95" filterUnits="userSpaceOnUse" color-interpolation-filters="sRGB">
<feFlood flood-opacity="0" result="BackgroundImageFix"/>
<feGaussianBlur in="BackgroundImage" stdDeviation="16"/>
<feComposite in2="SourceAlpha" operator="in" result="effect1_backgroundBlur_569_1629"/>
<feBlend mode="normal" in="SourceGraphic" in2="effect1_backgroundBlur_569_1629" result="shape"/>
</filter>
<linearGradient id="paint0_linear_569_1629" x1="778.392" y1="129.308" x2="342.401" y2="-234.367" gradientUnits="userSpaceOnUse">
<stop stop-color="white" stop-opacity="0.72"/>
<stop offset="0.557292" stop-color="white"/>
<stop offset="1" stop-color="white" stop-opacity="0.72"/>
</linearGradient>
<clipPath id="clip0_569_1629">
<path d="M40 12C40 5.37258 45.3726 0 52 0H1406.57C1413.2 0 1418.57 5.37258 1418.57 12V41H40V12Z" fill="white"/>
</clipPath>
<clipPath id="clip1_569_1629">
<rect x="86" y="134" width="222" height="94" fill="white"/>
</clipPath>
</defs>
</svg>
