<svg width="193" height="193" viewBox="0 0 193 193" fill="none" xmlns="http://www.w3.org/2000/svg">
<rect width="193" height="193" rx="16" fill="#D33D3D"/>
<rect x="53" y="40" width="87" height="113" rx="5" fill="white"/>
<rect x="61.3223" y="108.087" width="18.913" height="18.913" rx="5" fill="#FBE5E5"/>
<rect x="61.3223" y="74.0435" width="18.913" height="18.913" rx="5" fill="#FBE5E5"/>
<rect x="87.043" y="108.087" width="18.913" height="18.913" rx="5" fill="#FBE5E5"/>
<rect x="87.043" y="74.0435" width="18.913" height="18.913" rx="5" fill="#FBE5E5"/>
<rect x="112.766" y="108.087" width="18.913" height="18.913" rx="5" fill="#FBE5E5"/>
<rect x="112.766" y="74.0435" width="18.913" height="18.913" rx="5" fill="#FBE5E5"/>
<rect x="61.3223" y="44.5391" width="13.6174" height="8.32174" rx="4.16087" fill="#FBE5E5"/>
<rect x="82.5039" y="44.5391" width="16.6435" height="8.32174" rx="4.16087" fill="#FBE5E5"/>
<rect x="102.174" y="44.5391" width="29.5043" height="8.32174" rx="4.16087" fill="#FBE5E5"/>
<rect x="61.3223" y="58.1567" width="70.3565" height="10.5913" rx="5.29565" fill="#FBE5E5"/>
<rect x="61.3223" y="130.783" width="14.3739" height="4.53913" rx="2.26957" fill="#FBE5E5"/>
<rect x="61.3223" y="96.7393" width="14.3739" height="4.53913" rx="2.26957" fill="#FBE5E5"/>
<rect x="87.043" y="130.783" width="14.3739" height="4.53913" rx="2.26957" fill="#FBE5E5"/>
<rect x="87.043" y="96.7393" width="14.3739" height="4.53913" rx="2.26957" fill="#FBE5E5"/>
<rect x="112.766" y="130.783" width="14.3739" height="4.53913" rx="2.26957" fill="#FBE5E5"/>
<rect x="112.766" y="96.7393" width="14.3739" height="4.53913" rx="2.26957" fill="#FBE5E5"/>
<rect x="61.3223" y="140.617" width="70.3565" height="8.32174" rx="4.16087" fill="#FBE5E5"/>
</svg>
