<svg width="193" height="193" viewBox="0 0 193 193" fill="none" xmlns="http://www.w3.org/2000/svg">
<rect width="193" height="193" rx="16" fill="#2F80ED"/>
<rect x="53" y="40" width="87" height="113" rx="5" fill="white"/>
<rect x="61.3223" y="61.939" width="27.9913" height="24.9652" rx="5" fill="#E1ECFB"/>
<rect x="96.8789" y="61.939" width="34.8" height="8.32174" rx="4.16087" fill="#E1ECFB"/>
<rect x="61.3223" y="95.9824" width="70.3565" height="8.32174" rx="4.16087" fill="#E1ECFB"/>
<rect x="61.3223" y="109.6" width="70.3565" height="8.32174" rx="4.16087" fill="#E1ECFB"/>
<rect x="61.3223" y="124.73" width="70.3565" height="8.32174" rx="4.16087" fill="#E1ECFB"/>
<rect x="61.3223" y="44.5391" width="13.6174" height="8.32174" rx="4.16087" fill="#E1ECFB"/>
<rect x="82.5039" y="44.5391" width="16.6435" height="8.32174" rx="4.16087" fill="#E1ECFB"/>
<rect x="102.174" y="44.5391" width="29.5043" height="8.32174" rx="4.16087" fill="#E1ECFB"/>
<rect x="96.8789" y="73.2871" width="21.9391" height="8.32174" rx="4.16087" fill="#E1ECFB"/>
<rect x="61.3223" y="140.617" width="70.3565" height="8.32174" rx="4.16087" fill="#E1ECFB"/>
</svg>
