<svg width="193" height="193" viewBox="0 0 193 193" fill="none" xmlns="http://www.w3.org/2000/svg">
<rect width="193" height="193" rx="16" fill="#3DA976"/>
<rect x="53" y="40" width="87" height="113" rx="5" fill="white"/>
<rect x="61.3047" y="57.3643" width="70.2119" height="34.7285" rx="5" fill="#CAE1D6"/>
<rect x="61.3047" y="98.8877" width="29.4437" height="35.4834" rx="5" fill="#CAE1D6"/>
<rect x="68.0996" y="64.9141" width="34.7285" height="8.30464" rx="4.15232" fill="#9FC8B4"/>
<rect x="96.7891" y="98.8877" width="34.7285" height="8.30464" rx="4.15232" fill="#CAE1D6"/>
<rect x="61.3047" y="44.5298" width="13.5894" height="8.30464" rx="4.15232" fill="#CAE1D6"/>
<rect x="82.4434" y="44.5298" width="16.6093" height="8.30464" rx="4.15232" fill="#CAE1D6"/>
<rect x="102.073" y="44.5298" width="29.4437" height="8.30464" rx="4.15232" fill="#CAE1D6"/>
<rect x="68.0996" y="76.2383" width="21.894" height="8.30464" rx="4.15232" fill="#9FC8B4"/>
<rect x="96.7891" y="110.212" width="21.894" height="8.30464" rx="4.15232" fill="#CAE1D6"/>
<rect x="96.7891" y="123.046" width="27.9338" height="8.30464" rx="4.15232" fill="#CAE1D6"/>
<rect x="61.3047" y="140.41" width="70.2119" height="8.30464" rx="4.15232" fill="#CAE1D6"/>
</svg>
