<svg width="193" height="193" viewBox="0 0 193 193" fill="none" xmlns="http://www.w3.org/2000/svg">
<rect width="193" height="193" rx="16" fill="#F2C94C"/>
<rect x="53" y="40" width="87" height="113" rx="5" fill="white"/>
<rect x="84.7734" y="57.3999" width="46.9043" height="23.4522" rx="5" fill="#E8E8FF"/>
<rect x="84.7734" y="97.4956" width="46.9043" height="24.9652" rx="5" fill="#E8E8FF"/>
<rect x="84.7734" y="127" width="34.8" height="8.32174" rx="4.16087" fill="#E8E8FF"/>
<rect x="84.7734" y="85.3911" width="46.9043" height="8.32174" rx="4.16087" fill="#E8E8FF"/>
<rect x="61.3223" y="44.5391" width="13.6174" height="8.32174" rx="4.16087" fill="#E8E8FF"/>
<rect x="82.5039" y="44.5391" width="16.6435" height="8.32174" rx="4.16087" fill="#E8E8FF"/>
<rect x="102.174" y="44.5391" width="29.5043" height="8.32174" rx="4.16087" fill="#E8E8FF"/>
<rect x="61.3223" y="57.3999" width="18.1565" height="8.32174" rx="4.16087" fill="#E8E8FF"/>
<rect x="61.3223" y="69.5044" width="18.1565" height="8.32174" rx="4.16087" fill="#E8E8FF"/>
<rect x="61.3223" y="81.6089" width="18.1565" height="8.32174" rx="4.16087" fill="#E8E8FF"/>
<rect x="61.3223" y="93.7129" width="18.1565" height="8.32174" rx="4.16087" fill="#E8E8FF"/>
<rect x="61.3223" y="140.617" width="70.3565" height="8.32174" rx="4.16087" fill="#E8E8FF"/>
</svg>
