<svg width="418" height="168" viewBox="0 0 418 168" fill="none" xmlns="http://www.w3.org/2000/svg">
<g filter="url(#filter0_d_598_2532)">
<rect x="48" y="24" width="322" height="72" rx="36" fill="white"/>
<circle cx="333.5" cy="59.5" r="29.5" fill="#4946B6"/>
<path fill-rule="evenodd" clip-rule="evenodd" d="M324.289 40H328.63V55.7301H324.289V40ZM332.227 51.1292L329.715 55.7301H328.63V51.1292H332.227ZM342.708 40H337.685L332.227 51.1292H337.25L342.708 40Z" fill="white"/>
<path fill-rule="evenodd" clip-rule="evenodd" d="M353 51.2185L353 55.5707L341.898 55.5707L341.898 59.1768L337.309 56.6587L337.309 55.5707L337.309 55.5707L337.309 51.2185L353 51.2185ZM353 69.6842L353 64.6481L341.899 59.1768L341.899 64.2129L353 69.6842Z" fill="white"/>
<path fill-rule="evenodd" clip-rule="evenodd" d="M341.81 80H337.468V64.2699H341.81V80ZM333.871 68.8708L336.383 64.2699H337.468V68.8708H333.871ZM323.39 80H328.414L333.871 68.8708H328.848L323.39 80Z" fill="white"/>
<path fill-rule="evenodd" clip-rule="evenodd" d="M313 68.9822L313 64.63L328.691 64.63L328.691 68.9822L313 68.9822ZM324.101 61.0239L328.69 63.5419L328.69 64.63L324.101 64.63L324.101 61.0239ZM313 50.5164L313 55.5525L324.101 61.0239L324.101 55.9877L313 50.5164Z" fill="white"/>
<path d="M72.25 53.5469H81.2578V65H79.7344V54.8984H73.7656V65H72.25V53.5469ZM83.7915 68.1797V56.7031H85.0727V57.7812C85.3748 57.3594 85.716 57.0443 86.0962 56.8359C86.4764 56.6224 86.9373 56.5156 87.479 56.5156C88.1873 56.5156 88.8123 56.6979 89.354 57.0625C89.8957 57.4271 90.3045 57.9427 90.5806 58.6094C90.8566 59.2708 90.9946 59.9974 90.9946 60.7891C90.9946 61.638 90.841 62.4036 90.5337 63.0859C90.2316 63.763 89.7889 64.2839 89.2056 64.6484C88.6274 65.0078 88.0181 65.1875 87.3774 65.1875C86.9087 65.1875 86.4868 65.0885 86.1118 64.8906C85.742 64.6927 85.4373 64.4427 85.1977 64.1406V68.1797H83.7915ZM85.0649 60.8984C85.0649 61.9661 85.2811 62.7552 85.7134 63.2656C86.1457 63.776 86.6691 64.0312 87.2837 64.0312C87.9087 64.0312 88.4425 63.7682 88.8852 63.2422C89.3332 62.7109 89.5571 61.8906 89.5571 60.7812C89.5571 59.724 89.3384 58.9323 88.9009 58.4062C88.4686 57.8802 87.9503 57.6172 87.3462 57.6172C86.7472 57.6172 86.216 57.8984 85.7524 58.4609C85.2941 59.0182 85.0649 59.8307 85.0649 60.8984ZM92.4111 60.8516C92.4111 59.3151 92.8382 58.1771 93.6924 57.4375C94.4059 56.8229 95.2757 56.5156 96.3017 56.5156C97.4424 56.5156 98.3746 56.8906 99.0986 57.6406C99.8226 58.3854 100.185 59.4167 100.185 60.7344C100.185 61.8021 100.023 62.6432 99.7002 63.2578C99.3825 63.8672 98.9163 64.3411 98.3017 64.6797C97.6924 65.0182 97.0257 65.1875 96.3017 65.1875C95.1403 65.1875 94.2002 64.8151 93.4814 64.0703C92.7679 63.3255 92.4111 62.2526 92.4111 60.8516ZM93.8564 60.8516C93.8564 61.9141 94.0882 62.7109 94.5517 63.2422C95.0153 63.7682 95.5986 64.0312 96.3017 64.0312C96.9996 64.0312 97.5804 63.7656 98.0439 63.2344C98.5075 62.7031 98.7392 61.8932 98.7392 60.8047C98.7392 59.7786 98.5049 59.0026 98.0361 58.4766C97.5726 57.9453 96.9944 57.6797 96.3017 57.6797C95.5986 57.6797 95.0153 57.9427 94.5517 58.4688C94.0882 58.9948 93.8564 59.7891 93.8564 60.8516ZM102.085 56.7031H105.328C106.124 56.7031 106.716 56.7708 107.101 56.9062C107.492 57.0365 107.825 57.2786 108.101 57.6328C108.382 57.987 108.523 58.4115 108.523 58.9062C108.523 59.3021 108.44 59.6484 108.273 59.9453C108.111 60.237 107.867 60.4818 107.539 60.6797C107.929 60.8099 108.252 61.0547 108.507 61.4141C108.768 61.7682 108.898 62.1901 108.898 62.6797C108.846 63.4661 108.565 64.0495 108.054 64.4297C107.544 64.8099 106.802 65 105.828 65H102.085V56.7031ZM103.492 60.1953H104.992C105.591 60.1953 106.002 60.1641 106.226 60.1016C106.45 60.0391 106.651 59.9141 106.828 59.7266C107.005 59.5339 107.093 59.3047 107.093 59.0391C107.093 58.6016 106.937 58.2969 106.624 58.125C106.317 57.9531 105.789 57.8672 105.039 57.8672H103.492V60.1953ZM103.492 63.8438H105.343C106.14 63.8438 106.687 63.7526 106.984 63.5703C107.281 63.3828 107.437 63.0625 107.453 62.6094C107.453 62.3438 107.367 62.099 107.195 61.875C107.023 61.6458 106.799 61.5026 106.523 61.4453C106.247 61.3828 105.804 61.3516 105.195 61.3516H103.492V63.8438ZM116.307 62.3281L117.76 62.5078C117.531 63.3568 117.106 64.0156 116.486 64.4844C115.866 64.9531 115.075 65.1875 114.111 65.1875C112.898 65.1875 111.934 64.8151 111.221 64.0703C110.512 63.3203 110.158 62.2708 110.158 60.9219C110.158 59.526 110.518 58.4427 111.236 57.6719C111.955 56.901 112.887 56.5156 114.033 56.5156C115.143 56.5156 116.049 56.8932 116.752 57.6484C117.455 58.4036 117.807 59.4661 117.807 60.8359C117.807 60.9193 117.804 61.0443 117.799 61.2109H111.611C111.663 62.1224 111.921 62.8203 112.385 63.3047C112.848 63.7891 113.426 64.0312 114.119 64.0312C114.635 64.0312 115.075 63.8958 115.439 63.625C115.804 63.3542 116.093 62.9219 116.307 62.3281ZM111.689 60.0547H116.322C116.26 59.3568 116.083 58.8333 115.791 58.4844C115.343 57.9427 114.762 57.6719 114.049 57.6719C113.403 57.6719 112.859 57.888 112.416 58.3203C111.978 58.7526 111.736 59.3307 111.689 60.0547ZM119.77 68.1797V56.7031H121.051V57.7812C121.353 57.3594 121.694 57.0443 122.075 56.8359C122.455 56.6224 122.916 56.5156 123.457 56.5156C124.166 56.5156 124.791 56.6979 125.332 57.0625C125.874 57.4271 126.283 57.9427 126.559 58.6094C126.835 59.2708 126.973 59.9974 126.973 60.7891C126.973 61.638 126.819 62.4036 126.512 63.0859C126.21 63.763 125.767 64.2839 125.184 64.6484C124.606 65.0078 123.996 65.1875 123.356 65.1875C122.887 65.1875 122.465 65.0885 122.09 64.8906C121.72 64.6927 121.416 64.4427 121.176 64.1406V68.1797H119.77ZM121.043 60.8984C121.043 61.9661 121.26 62.7552 121.692 63.2656C122.124 63.776 122.648 64.0312 123.262 64.0312C123.887 64.0312 124.421 63.7682 124.864 63.2422C125.312 62.7109 125.536 61.8906 125.536 60.7812C125.536 59.724 125.317 58.9323 124.879 58.4062C124.447 57.8802 123.929 57.6172 123.325 57.6172C122.726 57.6172 122.194 57.8984 121.731 58.4609C121.273 59.0182 121.043 59.8307 121.043 60.8984ZM135.257 56.7031V65H133.858V61.7656H133.046C132.551 61.7656 132.181 61.8307 131.936 61.9609C131.697 62.0859 131.345 62.4948 130.882 63.1875L129.655 65H127.913L129.429 62.7656C129.892 62.0833 130.353 61.6979 130.811 61.6094C130.009 61.5 129.413 61.2109 129.022 60.7422C128.637 60.2734 128.444 59.7344 128.444 59.125C128.444 58.4062 128.697 57.8229 129.202 57.375C129.712 56.9271 130.449 56.7031 131.413 56.7031H135.257ZM133.858 57.8672H131.858C131.02 57.8672 130.478 57.9974 130.233 58.2578C129.994 58.5182 129.874 58.8229 129.874 59.1719C129.874 59.6667 130.051 60.0312 130.405 60.2656C130.765 60.4948 131.397 60.6094 132.304 60.6094H133.858V57.8672ZM143.314 62.3281L144.767 62.5078C144.538 63.3568 144.113 64.0156 143.494 64.4844C142.874 64.9531 142.082 65.1875 141.119 65.1875C139.905 65.1875 138.941 64.8151 138.228 64.0703C137.52 63.3203 137.165 62.2708 137.165 60.9219C137.165 59.526 137.525 58.4427 138.244 57.6719C138.962 56.901 139.895 56.5156 141.04 56.5156C142.15 56.5156 143.056 56.8932 143.759 57.6484C144.462 58.4036 144.814 59.4661 144.814 60.8359C144.814 60.9193 144.811 61.0443 144.806 61.2109H138.619C138.671 62.1224 138.928 62.8203 139.392 63.3047C139.856 63.7891 140.434 64.0312 141.126 64.0312C141.642 64.0312 142.082 63.8958 142.447 63.625C142.811 63.3542 143.1 62.9219 143.314 62.3281ZM138.697 60.0547H143.329C143.267 59.3568 143.09 58.8333 142.798 58.4844C142.35 57.9427 141.77 57.6719 141.056 57.6719C140.41 57.6719 139.866 57.888 139.423 58.3203C138.986 58.7526 138.744 59.3307 138.697 60.0547ZM146.816 56.7031H149.004L151.183 63.3438L153.605 56.7031H155.629V65H154.223V58.3203L151.769 65H150.512L148.191 58V65H146.816V56.7031ZM162.743 56.7031H164.93L167.11 63.3438L169.532 56.7031H171.555V65H170.149V58.3203L167.696 65H166.438L164.118 58V65H162.743V56.7031ZM179.355 63.9766C178.834 64.4193 178.331 64.7318 177.847 64.9141C177.368 65.0964 176.852 65.1875 176.3 65.1875C175.389 65.1875 174.688 64.9661 174.199 64.5234C173.709 64.0755 173.464 63.5052 173.464 62.8125C173.464 62.4062 173.555 62.0365 173.738 61.7031C173.925 61.3646 174.167 61.0938 174.464 60.8906C174.766 60.6875 175.105 60.5339 175.48 60.4297C175.756 60.3568 176.173 60.2865 176.73 60.2188C177.865 60.0833 178.701 59.9219 179.238 59.7344C179.243 59.5417 179.245 59.4193 179.245 59.3672C179.245 58.7943 179.113 58.3906 178.847 58.1562C178.488 57.8385 177.954 57.6797 177.245 57.6797C176.584 57.6797 176.094 57.7969 175.777 58.0312C175.464 58.2604 175.232 58.6693 175.081 59.2578L173.706 59.0703C173.831 58.4818 174.037 58.0078 174.324 57.6484C174.61 57.2839 175.024 57.0052 175.566 56.8125C176.107 56.6146 176.735 56.5156 177.449 56.5156C178.157 56.5156 178.732 56.599 179.175 56.7656C179.618 56.9323 179.943 57.1432 180.152 57.3984C180.36 57.6484 180.506 57.9661 180.589 58.3516C180.636 58.5911 180.659 59.0234 180.659 59.6484V61.5234C180.659 62.8307 180.688 63.6589 180.745 64.0078C180.808 64.3516 180.928 64.6823 181.105 65H179.636C179.49 64.7083 179.396 64.3672 179.355 63.9766ZM179.238 60.8359C178.727 61.0443 177.962 61.2214 176.941 61.3672C176.363 61.4505 175.954 61.5443 175.714 61.6484C175.475 61.7526 175.29 61.9062 175.159 62.1094C175.029 62.3073 174.964 62.5286 174.964 62.7734C174.964 63.1484 175.105 63.4609 175.386 63.7109C175.673 63.9609 176.089 64.0859 176.636 64.0859C177.178 64.0859 177.659 63.9688 178.081 63.7344C178.503 63.4948 178.813 63.1693 179.011 62.7578C179.162 62.4401 179.238 61.9714 179.238 61.3516V60.8359ZM183.076 56.7031H184.482V60.2891C184.93 60.2891 185.243 60.2031 185.42 60.0312C185.602 59.8594 185.868 59.3594 186.217 58.5312C186.493 57.875 186.717 57.4427 186.888 57.2344C187.06 57.026 187.258 56.8854 187.482 56.8125C187.706 56.7396 188.066 56.7031 188.56 56.7031H188.842V57.8672L188.451 57.8594C188.081 57.8594 187.844 57.9141 187.74 58.0234C187.631 58.138 187.464 58.4792 187.24 59.0469C187.026 59.5885 186.831 59.9635 186.654 60.1719C186.477 60.3802 186.204 60.5703 185.834 60.7422C186.438 60.9036 187.032 61.4661 187.615 62.4297L189.154 65H187.607L186.107 62.4297C185.8 61.9141 185.532 61.5755 185.303 61.4141C185.073 61.2474 184.8 61.1641 184.482 61.1641V65H183.076V56.7031ZM196.188 62.3281L197.641 62.5078C197.412 63.3568 196.987 64.0156 196.367 64.4844C195.748 64.9531 194.956 65.1875 193.992 65.1875C192.779 65.1875 191.815 64.8151 191.102 64.0703C190.394 63.3203 190.039 62.2708 190.039 60.9219C190.039 59.526 190.399 58.4427 191.117 57.6719C191.836 56.901 192.769 56.5156 193.914 56.5156C195.024 56.5156 195.93 56.8932 196.633 57.6484C197.336 58.4036 197.688 59.4661 197.688 60.8359C197.688 60.9193 197.685 61.0443 197.68 61.2109H191.492C191.545 62.1224 191.802 62.8203 192.266 63.3047C192.729 63.7891 193.308 64.0312 194 64.0312C194.516 64.0312 194.956 63.8958 195.321 63.625C195.685 63.3542 195.974 62.9219 196.188 62.3281ZM191.571 60.0547H196.203C196.141 59.3568 195.964 58.8333 195.672 58.4844C195.224 57.9427 194.644 57.6719 193.93 57.6719C193.284 57.6719 192.74 57.888 192.297 58.3203C191.86 58.7526 191.617 59.3307 191.571 60.0547ZM198.362 56.7031H205.104V57.8672H202.432V65H201.034V57.8672H198.362V56.7031ZM214.583 56.7031H215.99V65H214.583V56.7031ZM206.716 56.7031H208.122V59.9453H209.904C211.065 59.9453 211.958 60.1719 212.583 60.625C213.213 61.0729 213.529 61.6927 213.529 62.4844C213.529 63.1771 213.266 63.7708 212.74 64.2656C212.219 64.7552 211.383 65 210.232 65H206.716V56.7031ZM208.122 63.8438H209.599C210.49 63.8438 211.125 63.7344 211.505 63.5156C211.885 63.2969 212.075 62.9557 212.075 62.4922C212.075 62.1328 211.935 61.8125 211.654 61.5312C211.372 61.25 210.75 61.1094 209.786 61.1094H208.122V63.8438ZM218.82 65V63.3984H220.422V65H218.82ZM223.51 65V63.3984H225.112V65H223.51ZM228.2 65V63.3984H229.801V65H228.2Z" fill="#737587"/>
</g>
<defs>
<filter id="filter0_d_598_2532" x="0" y="0" width="418" height="168" filterUnits="userSpaceOnUse" color-interpolation-filters="sRGB">
<feFlood flood-opacity="0" result="BackgroundImageFix"/>
<feColorMatrix in="SourceAlpha" type="matrix" values="0 0 0 0 0 0 0 0 0 0 0 0 0 0 0 0 0 0 127 0" result="hardAlpha"/>
<feOffset dy="24"/>
<feGaussianBlur stdDeviation="24"/>
<feComposite in2="hardAlpha" operator="out"/>
<feColorMatrix type="matrix" values="0 0 0 0 0.0641667 0 0 0 0 0.233333 0 0 0 0 0.169896 0 0 0 0.06 0"/>
<feBlend mode="normal" in2="BackgroundImageFix" result="effect1_dropShadow_598_2532"/>
<feBlend mode="normal" in="SourceGraphic" in2="effect1_dropShadow_598_2532" result="shape"/>
</filter>
</defs>
</svg>
