<svg width="24" height="24" viewBox="0 0 24 24" fill="none" xmlns="http://www.w3.org/2000/svg">
<path d="M2.5754 12.7132C2.43921 12.4975 2.37112 12.3897 2.333 12.2234C2.30437 12.0985 2.30437 11.9015 2.333 11.7766C2.37112 11.6103 2.43921 11.5025 2.5754 11.2868C3.7008 9.50484 7.05067 5 12.1557 5C17.2607 5 20.6106 9.50484 21.736 11.2868C21.8721 11.5025 21.9402 11.6103 21.9784 11.7766C22.007 11.9015 22.007 12.0985 21.9784 12.2234C21.9402 12.3897 21.8721 12.4975 21.736 12.7132C20.6106 14.4952 17.2607 19 12.1557 19C7.05067 19 3.7008 14.4952 2.5754 12.7132Z" stroke="#4C4D55" stroke-width="1.6" stroke-linecap="round" stroke-linejoin="round"/>
<path d="M12.1557 15C13.8125 15 15.1557 13.6569 15.1557 12C15.1557 10.3431 13.8125 9 12.1557 9C10.4988 9 9.15568 10.3431 9.15568 12C9.15568 13.6569 10.4988 15 12.1557 15Z" stroke="#4C4D55" stroke-width="1.6" stroke-linecap="round" stroke-linejoin="round"/>
</svg>
