<svg width="64" height="64" viewBox="0 0 64 64" fill="none" xmlns="http://www.w3.org/2000/svg">
<circle cx="32" cy="32" r="32" fill="#4946B6"/>
<path fill-rule="evenodd" clip-rule="evenodd" d="M22.0063 10.8467H26.7156V22.9195H30.6172L27.8926 27.9103L26.7153 27.9103V27.9098H22.0063V10.8467ZM41.9866 10.8469H36.5373L30.6172 22.9192H36.0664L41.9866 10.8469Z" fill="white"/>
<path fill-rule="evenodd" clip-rule="evenodd" d="M53.1514 43.0471L53.1514 37.5842L41.1092 31.6492L41.1092 37.1121L53.1514 43.0471ZM53.1512 23.0166L53.1512 27.7376L41.1092 27.7376L41.1092 31.6492L36.1309 28.9178L36.1309 27.7376L36.1307 27.7376L36.1307 23.0166L53.1512 23.0166Z" fill="white"/>
<path fill-rule="evenodd" clip-rule="evenodd" d="M41.0146 54.2368H36.3054V42.1642H32.4037L35.1283 37.1734L36.3056 37.1734V37.1737H41.0146V54.2368ZM21.0343 54.2368H26.4835L32.4037 42.1645H26.9545L21.0343 54.2368Z" fill="white"/>
<path fill-rule="evenodd" clip-rule="evenodd" d="M9.7627 22.2544L9.7627 27.7173L21.8048 33.6523L21.8048 28.1894L9.7627 22.2544ZM9.76289 42.2852L9.76289 37.5641L26.7834 37.5641L26.7834 42.2852L9.76289 42.2852ZM21.8049 33.6523L26.7832 36.3838L26.7832 37.5641L21.8049 37.5641L21.8049 33.6523Z" fill="white"/>
</svg>
