<svg width="15" height="14" viewBox="0 0 15 14" fill="none" xmlns="http://www.w3.org/2000/svg">
<path d="M4.58329 12.8334V6.41675M1.66663 7.58341V11.6667C1.66663 12.3111 2.18896 12.8334 2.83329 12.8334H10.6653C11.529 12.8334 12.2636 12.2032 12.3949 11.3495L13.0231 7.26618C13.1862 6.2061 12.366 5.25008 11.2935 5.25008H9.24996C8.92779 5.25008 8.66663 4.98891 8.66663 4.66675V2.60515C8.66663 1.81074 8.02263 1.16675 7.22822 1.16675C7.03874 1.16675 6.86703 1.27834 6.79008 1.45149L4.73726 6.07033C4.64363 6.28099 4.43473 6.41675 4.2042 6.41675H2.83329C2.18896 6.41675 1.66663 6.93908 1.66663 7.58341Z" stroke="white" stroke-width="1.24" stroke-linecap="round" stroke-linejoin="round"/>
</svg>
