<svg width="28" height="28" viewBox="0 0 28 28" fill="none" xmlns="http://www.w3.org/2000/svg">
<g clip-path="url(#clip0_675_6043)">
<path d="M15.0966 14L20.7666 8.33004C20.894 8.18125 20.9606 7.98986 20.953 7.79411C20.9455 7.59836 20.8643 7.41268 20.7258 7.27416C20.5873 7.13564 20.4016 7.05449 20.2059 7.04693C20.0101 7.03937 19.8187 7.10595 19.6699 7.23337L13.9999 12.9034L8.32993 7.2256C8.18114 7.09818 7.98974 7.03159 7.79399 7.03915C7.59825 7.04672 7.41256 7.12786 7.27404 7.26638C7.13552 7.4049 7.05438 7.59058 7.04682 7.78633C7.03926 7.98208 7.10584 8.17347 7.23326 8.32226L12.9033 14L7.22548 19.67C7.14406 19.7398 7.07793 19.8256 7.03125 19.9221C6.98457 20.0186 6.95833 20.1237 6.95419 20.2308C6.95006 20.3379 6.9681 20.4447 7.00721 20.5445C7.04631 20.6443 7.10562 20.735 7.18142 20.8108C7.25722 20.8866 7.34787 20.9459 7.44767 20.985C7.54748 21.0241 7.6543 21.0421 7.76141 21.038C7.86853 21.0339 7.97363 21.0076 8.07012 20.9609C8.16662 20.9143 8.25242 20.8481 8.32215 20.7667L13.9999 15.0967L19.6699 20.7667C19.8187 20.8941 20.0101 20.9607 20.2059 20.9531C20.4016 20.9456 20.5873 20.8644 20.7258 20.7259C20.8643 20.5874 20.9455 20.4017 20.953 20.206C20.9606 20.0102 20.894 19.8188 20.7666 19.67L15.0966 14Z" fill="#AEAFB8"/>
</g>
<defs>
<clipPath id="clip0_675_6043">
<rect width="28" height="28" fill="white"/>
</clipPath>
</defs>
</svg>
