<svg width="65" height="64" viewBox="0 0 65 64" fill="none" xmlns="http://www.w3.org/2000/svg">
<circle cx="32.5" cy="32" r="32" fill="#4946B6"/>
<path fill-rule="evenodd" clip-rule="evenodd" d="M22.5059 10.8472H27.2151V22.92H31.1167L28.3921 27.9108L27.2148 27.9108V27.9103H22.5059V10.8472ZM42.4861 10.8474H37.0369L31.1167 22.9197H36.5659L42.4861 10.8474Z" fill="white"/>
<path fill-rule="evenodd" clip-rule="evenodd" d="M53.6514 43.0471L53.6514 37.5842L41.6092 31.6492L41.6092 37.1121L53.6514 43.0471ZM53.6512 23.0166L53.6512 27.7376L41.6092 27.7376L41.6092 31.6492L36.6309 28.9178L36.6309 27.7376L36.6307 27.7376L36.6307 23.0166L53.6512 23.0166Z" fill="white"/>
<path fill-rule="evenodd" clip-rule="evenodd" d="M41.5146 54.2368H36.8054V42.1642H32.9037L35.6283 37.1734L36.8056 37.1734V37.1737H41.5146V54.2368ZM21.5343 54.2368H26.9835L32.9037 42.1645H27.4545L21.5343 54.2368Z" fill="white"/>
<path fill-rule="evenodd" clip-rule="evenodd" d="M10.2627 22.2547L10.2627 27.7176L22.3048 33.6526L22.3048 28.1897L10.2627 22.2547ZM10.2629 42.2854L10.2629 37.5644L27.2834 37.5644L27.2834 42.2854L10.2629 42.2854ZM22.3049 33.6526L27.2832 36.384L27.2832 37.5643L22.3049 37.5643L22.3049 33.6526Z" fill="white"/>
</svg>
