<svg width="15" height="14" viewBox="0 0 15 14" fill="none" xmlns="http://www.w3.org/2000/svg">
<path d="M4.58329 1.16659V7.58325M1.66663 6.41659V2.33325C1.66663 1.68892 2.18896 1.16659 2.83329 1.16659H10.6653C11.529 1.16659 12.2636 1.79678 12.3949 2.65048L13.0231 6.73382C13.1862 7.7939 12.366 8.74992 11.2935 8.74992H9.24996C8.92779 8.74992 8.66663 9.01109 8.66663 9.33325V11.3948C8.66663 12.1893 8.02263 12.8333 7.22822 12.8333C7.03874 12.8333 6.86703 12.7217 6.79008 12.5485L4.73726 7.92967C4.64363 7.71901 4.43473 7.58325 4.2042 7.58325H2.83329C2.18896 7.58325 1.66663 7.06092 1.66663 6.41659Z" stroke="white" stroke-width="1.24" stroke-linecap="round" stroke-linejoin="round"/>
</svg>
