<svg width="40" height="40" viewBox="0 0 40 40" fill="none" xmlns="http://www.w3.org/2000/svg">
<rect x="40" y="40" width="40" height="40" rx="20" transform="rotate(-180 40 40)" fill="#F0F3F5"/>
<path d="M12.0168 20.5944C11.9033 20.4147 11.8465 20.3248 11.8148 20.1863C11.7909 20.0822 11.7909 19.918 11.8148 19.8139C11.8465 19.6753 11.9033 19.5855 12.0168 19.4058C12.9546 17.9208 15.7462 14.1667 20.0003 14.1667C24.2545 14.1667 27.0461 17.9208 27.9839 19.4058C28.0974 19.5855 28.1541 19.6753 28.1859 19.8139C28.2098 19.918 28.2098 20.0822 28.1859 20.1863C28.1541 20.3248 28.0974 20.4147 27.9839 20.5944C27.0461 22.0794 24.2545 25.8334 20.0003 25.8334C15.7462 25.8334 12.9546 22.0794 12.0168 20.5944Z" stroke="#737587" stroke-width="1.64" stroke-linecap="round" stroke-linejoin="round"/>
<path d="M20.0003 22.5001C21.381 22.5001 22.5003 21.3808 22.5003 20.0001C22.5003 18.6194 21.381 17.5001 20.0003 17.5001C18.6196 17.5001 17.5003 18.6194 17.5003 20.0001C17.5003 21.3808 18.6196 22.5001 20.0003 22.5001Z" stroke="#737587" stroke-width="1.64" stroke-linecap="round" stroke-linejoin="round"/>
</svg>
