<svg width="59" height="59" viewBox="0 0 59 59" fill="none" xmlns="http://www.w3.org/2000/svg">
<circle cx="29.5" cy="29.5" r="29.5" fill="#4946B6"/>
<path fill-rule="evenodd" clip-rule="evenodd" d="M20.2886 10H24.6299V25.7301H20.2886V10ZM28.2271 21.1292L25.7153 25.7301H24.63V21.1292H28.2271ZM38.7081 10H33.6846L28.227 21.1292H33.2505L38.7081 10Z" fill="white"/>
<path fill-rule="evenodd" clip-rule="evenodd" d="M49 21.2185L49 25.5707L37.8984 25.5707L37.8984 29.1768L33.3091 26.6587L33.3091 25.5707L33.3093 25.5707L33.3093 21.2185L49 21.2185ZM49 39.6842L49 34.6481L37.8986 29.1768L37.8986 34.2129L49 39.6842Z" fill="white"/>
<path fill-rule="evenodd" clip-rule="evenodd" d="M37.8096 50H33.4683V34.2699H37.8096V50ZM29.8711 38.8708L32.3829 34.2699H33.4682V38.8708H29.8711ZM19.3901 50H24.4136L29.8713 38.8708H24.8478L19.3901 50Z" fill="white"/>
<path fill-rule="evenodd" clip-rule="evenodd" d="M9 38.9822L9 34.63L24.6907 34.63L24.6907 38.9822L9 38.9822ZM20.1011 31.0239L24.6905 33.5419L24.6905 34.63L20.1011 34.63L20.1011 31.0239ZM9 20.5164L9 25.5525L20.1014 31.0239L20.1014 25.9877L9 20.5164Z" fill="white"/>
</svg>
