<svg width="193" height="193" viewBox="0 0 193 193" fill="none" xmlns="http://www.w3.org/2000/svg">
<rect width="193" height="193" rx="16" fill="#333333"/>
<rect x="53" y="40" width="87" height="113" rx="5" fill="white"/>
<rect x="61.3223" y="57.3999" width="31.7739" height="34.8" rx="5" fill="#E8E8FF"/>
<rect x="61.3223" y="99.0088" width="70.3565" height="8.32174" rx="4.16087" fill="#E8E8FF"/>
<rect x="61.3223" y="111.87" width="70.3565" height="8.32174" rx="4.16087" fill="#E8E8FF"/>
<rect x="61.3223" y="126.244" width="34.0435" height="8.32174" rx="4.16087" fill="#E8FFF0"/>
<rect x="99.1484" y="126.244" width="32.5304" height="8.32174" rx="4.16087" fill="#FFE8EC"/>
<rect x="65.1035" y="64.2085" width="22.6957" height="8.32174" rx="4.16087" fill="#DCDBF4"/>
<rect x="65.1035" y="77.8262" width="22.6957" height="8.32174" rx="4.16087" fill="#DCDBF4"/>
<rect x="61.3223" y="44.5391" width="13.6174" height="8.32174" rx="4.16087" fill="#E8E8FF"/>
<rect x="82.5039" y="44.5391" width="16.6435" height="8.32174" rx="4.16087" fill="#E8E8FF"/>
<rect x="102.174" y="44.5391" width="29.5043" height="8.32174" rx="4.16087" fill="#E8E8FF"/>
<rect x="96.1211" y="57.3999" width="35.5565" height="8.32174" rx="4.16087" fill="#E8E8FF"/>
<rect x="96.1211" y="70.2607" width="35.5565" height="8.32174" rx="4.16087" fill="#E8E8FF"/>
<rect x="96.1211" y="83.8784" width="35.5565" height="8.32174" rx="4.16087" fill="#E8E8FF"/>
<rect x="61.3223" y="140.617" width="70.3565" height="8.32174" rx="4.16087" fill="#E8E8FF"/>
</svg>
