<svg width="36" height="37" viewBox="0 0 36 37" fill="none" xmlns="http://www.w3.org/2000/svg">
<path fill-rule="evenodd" clip-rule="evenodd" d="M10.1597 0.5H14.0668V14.6571H10.1597V0.5ZM17.3043 10.5163L15.0438 14.6571H14.067V10.5163H17.3043ZM26.7374 0.5H22.2162L17.3043 10.5163H21.8255L26.7374 0.5Z" fill="#4946B6"/>
<path fill-rule="evenodd" clip-rule="evenodd" d="M36 10.5967L36 14.5137L26.0086 14.5137L26.0086 17.7591L21.8781 15.4928L21.8781 14.5136L21.8783 14.5136L21.8783 10.5967L36 10.5967ZM36 27.2158L36 22.6833L26.0088 17.7591L26.0088 22.2916L36 27.2158Z" fill="#4946B6"/>
<path fill-rule="evenodd" clip-rule="evenodd" d="M25.9287 36.5H22.0215V22.3429H25.9287V36.5ZM18.784 26.4837L21.0446 22.3429H22.0214V26.4837H18.784ZM9.35115 36.5H13.8723L18.7842 26.4837H14.263L9.35115 36.5Z" fill="#4946B6"/>
<path fill-rule="evenodd" clip-rule="evenodd" d="M0 26.5839L1.92619e-07 22.6669L14.1217 22.6669L14.1217 26.5839L0 26.5839ZM9.99097 19.4214L14.1214 21.6877L14.1214 22.6669L9.99097 22.6669L9.99097 19.4214ZM8.17255e-07 9.96472L5.94368e-07 14.4972L9.99122 19.4214L9.99122 14.8889L8.17255e-07 9.96472Z" fill="#4946B6"/>
</svg>
