<svg width="64" height="64" viewBox="0 0 64 64" fill="none" xmlns="http://www.w3.org/2000/svg">
<rect width="64" height="64" rx="32" fill="white"/>
<path d="M22.4196 32.7132C22.2834 32.4975 22.2154 32.3897 22.1772 32.2234C22.1486 32.0985 22.1486 31.9015 22.1772 31.7766C22.2154 31.6103 22.2834 31.5025 22.4196 31.2868C23.545 29.5048 26.8949 25 31.9999 25C37.1049 25 40.4548 29.5048 41.5802 31.2868C41.7164 31.5025 41.7845 31.6103 41.8226 31.7766C41.8512 31.9015 41.8512 32.0985 41.8226 32.2234C41.7845 32.3897 41.7164 32.4975 41.5802 32.7132C40.4548 34.4952 37.1049 39 31.9999 39C26.8949 39 23.545 34.4952 22.4196 32.7132Z" stroke="#181B26" stroke-width="1.6" stroke-linecap="round" stroke-linejoin="round"/>
<path d="M31.9999 35C33.6568 35 34.9999 33.6569 34.9999 32C34.9999 30.3431 33.6568 29 31.9999 29C30.3431 29 28.9999 30.3431 28.9999 32C28.9999 33.6569 30.3431 35 31.9999 35Z" stroke="#181B26" stroke-width="1.6" stroke-linecap="round" stroke-linejoin="round"/>
</svg>
