<svg width="1015" height="755" viewBox="0 0 1015 755" fill="none" xmlns="http://www.w3.org/2000/svg">
<g id="css">
<g id="dashed-lines">
<path id="css-dashed-lines-4" d="M0 158H1015" stroke="#4946B6" stroke-width="0.64" stroke-dasharray="4 4"/>
<path id="css-dashed-lines-3" d="M0 251H1015" stroke="#4946B6" stroke-width="0.64" stroke-dasharray="4 4"/>
<path id="css-dashed-lines-2" d="M47.32 0V755" stroke="#4946B6" stroke-width="0.64" stroke-dasharray="4 4"/>
<path id="css-dashed-lines-1" d="M225 0V755" stroke="#4946B6" stroke-width="0.64" stroke-dasharray="4 4"/>
</g>
<g id="corner">
<path id="corner-4" d="M227.4 156H221V162.4H227.4V156Z" fill="white" stroke="#F86624" stroke-width="2.4"/>
<path id="corner-3" d="M227.4 248H221V254.4H227.4V248Z" fill="white" stroke="#F86624" stroke-width="2.4"/>
<path id="corner-2" d="M49.4 248H43V254.4H49.4V248Z" fill="white" stroke="#F86624" stroke-width="2.4"/>
<path id="corner-1" d="M49.4 156H43V162.4H49.4V156Z" fill="white" stroke="#F86624" stroke-width="2.4"/>
</g>
<g id="span">
<path id="Vector" d="M382 261H235V292H382V261Z" fill="black" fill-opacity="0.72"/>
<path id="178 x 93" d="M304.972 272.273V281H303.915V273.381H303.864L301.733 274.795V273.722L303.915 272.273H304.972ZM307.754 281L311.658 273.278V273.21H307.158V272.273H312.749V273.261L308.862 281H307.754ZM316.957 281.119C316.371 281.119 315.854 281.016 315.406 280.808C314.96 280.598 314.612 280.31 314.362 279.943C314.112 279.574 313.988 279.153 313.991 278.682C313.988 278.312 314.06 277.972 314.208 277.659C314.356 277.344 314.558 277.081 314.813 276.871C315.072 276.658 315.36 276.523 315.678 276.466V276.415C315.261 276.307 314.928 276.072 314.681 275.712C314.434 275.348 314.312 274.935 314.315 274.472C314.312 274.028 314.424 273.632 314.651 273.283C314.879 272.933 315.191 272.658 315.589 272.456C315.989 272.254 316.445 272.153 316.957 272.153C317.462 272.153 317.914 272.254 318.312 272.456C318.71 272.658 319.022 272.933 319.249 273.283C319.479 273.632 319.596 274.028 319.599 274.472C319.596 274.935 319.469 275.348 319.219 275.712C318.972 276.072 318.644 276.307 318.235 276.415V276.466C318.55 276.523 318.835 276.658 319.087 276.871C319.34 277.081 319.542 277.344 319.692 277.659C319.843 277.972 319.92 278.312 319.923 278.682C319.92 279.153 319.792 279.574 319.539 279.943C319.289 280.31 318.941 280.598 318.495 280.808C318.052 281.016 317.539 281.119 316.957 281.119ZM316.957 280.182C317.352 280.182 317.692 280.118 317.979 279.99C318.266 279.862 318.488 279.682 318.644 279.449C318.8 279.216 318.88 278.943 318.883 278.631C318.88 278.301 318.795 278.01 318.627 277.757C318.46 277.504 318.231 277.305 317.941 277.161C317.654 277.016 317.326 276.943 316.957 276.943C316.585 276.943 316.252 277.016 315.96 277.161C315.67 277.305 315.441 277.504 315.273 277.757C315.109 278.01 315.028 278.301 315.031 278.631C315.028 278.943 315.103 279.216 315.256 279.449C315.413 279.682 315.636 279.862 315.925 279.99C316.215 280.118 316.559 280.182 316.957 280.182ZM316.957 276.04C317.269 276.04 317.546 275.977 317.788 275.852C318.032 275.727 318.224 275.553 318.363 275.328C318.502 275.104 318.573 274.841 318.576 274.54C318.573 274.244 318.504 273.987 318.367 273.768C318.231 273.547 318.042 273.376 317.8 273.257C317.559 273.135 317.278 273.074 316.957 273.074C316.63 273.074 316.344 273.135 316.1 273.257C315.856 273.376 315.667 273.547 315.533 273.768C315.4 273.987 315.335 274.244 315.337 274.54C315.335 274.841 315.401 275.104 315.538 275.328C315.677 275.553 315.869 275.727 316.113 275.852C316.357 275.977 316.638 276.04 316.957 276.04ZM330.061 279.432L325.255 274.625L325.902 273.977L330.709 278.784L330.061 279.432ZM325.902 279.432L325.255 278.784L330.061 273.977L330.709 274.625L325.902 279.432ZM338.994 272.153C339.352 272.156 339.71 272.224 340.068 272.358C340.426 272.491 340.753 272.713 341.048 273.023C341.344 273.33 341.581 273.749 341.76 274.28C341.939 274.811 342.028 275.477 342.028 276.278C342.028 277.054 341.955 277.743 341.807 278.345C341.662 278.945 341.452 279.45 341.176 279.862C340.903 280.274 340.571 280.587 340.179 280.8C339.79 281.013 339.349 281.119 338.858 281.119C338.369 281.119 337.933 281.023 337.55 280.83C337.169 280.634 336.857 280.362 336.612 280.016C336.371 279.666 336.216 279.261 336.148 278.801H337.188C337.281 279.202 337.467 279.533 337.746 279.794C338.027 280.053 338.398 280.182 338.858 280.182C339.531 280.182 340.063 279.888 340.452 279.3C340.844 278.712 341.04 277.881 341.04 276.807H340.972C340.813 277.045 340.624 277.251 340.405 277.425C340.186 277.598 339.943 277.732 339.676 277.825C339.409 277.919 339.125 277.966 338.824 277.966C338.324 277.966 337.865 277.842 337.447 277.595C337.033 277.345 336.7 277.003 336.45 276.568C336.203 276.131 336.08 275.631 336.08 275.068C336.08 274.534 336.199 274.045 336.438 273.602C336.679 273.156 337.017 272.801 337.452 272.537C337.889 272.273 338.403 272.145 338.994 272.153ZM338.994 273.091C338.636 273.091 338.314 273.18 338.027 273.359C337.743 273.536 337.517 273.774 337.349 274.075C337.185 274.374 337.102 274.705 337.102 275.068C337.102 275.432 337.182 275.763 337.341 276.061C337.503 276.357 337.723 276.592 338.001 276.768C338.283 276.942 338.602 277.028 338.96 277.028C339.23 277.028 339.482 276.976 339.714 276.871C339.947 276.763 340.151 276.616 340.324 276.432C340.5 276.244 340.638 276.033 340.737 275.797C340.837 275.558 340.886 275.31 340.886 275.051C340.886 274.71 340.804 274.391 340.639 274.092C340.477 273.794 340.253 273.553 339.966 273.368C339.682 273.183 339.358 273.091 338.994 273.091ZM346.653 281.119C346.091 281.119 345.589 281.023 345.149 280.83C344.711 280.636 344.363 280.368 344.105 280.024C343.849 279.678 343.71 279.276 343.687 278.818H344.761C344.784 279.099 344.88 279.342 345.051 279.547C345.221 279.749 345.444 279.905 345.72 280.016C345.995 280.126 346.301 280.182 346.636 280.182C347.011 280.182 347.343 280.116 347.633 279.986C347.923 279.855 348.15 279.673 348.315 279.44C348.48 279.207 348.562 278.938 348.562 278.631C348.562 278.31 348.483 278.027 348.324 277.783C348.164 277.536 347.931 277.342 347.625 277.203C347.318 277.064 346.943 276.994 346.5 276.994H345.801V276.057H346.5C346.846 276.057 347.15 275.994 347.412 275.869C347.676 275.744 347.882 275.568 348.029 275.341C348.18 275.114 348.255 274.847 348.255 274.54C348.255 274.244 348.19 273.987 348.059 273.768C347.929 273.55 347.744 273.379 347.505 273.257C347.27 273.135 346.991 273.074 346.67 273.074C346.369 273.074 346.085 273.129 345.818 273.24C345.554 273.348 345.338 273.506 345.17 273.713C345.002 273.918 344.912 274.165 344.897 274.455H343.875C343.892 273.997 344.029 273.597 344.288 273.253C344.547 272.906 344.885 272.636 345.302 272.443C345.723 272.25 346.184 272.153 346.687 272.153C347.227 272.153 347.69 272.263 348.076 272.482C348.463 272.697 348.76 272.983 348.967 273.338C349.174 273.693 349.278 274.077 349.278 274.489C349.278 274.98 349.149 275.399 348.89 275.746C348.635 276.092 348.287 276.332 347.846 276.466V276.534C348.397 276.625 348.828 276.859 349.137 277.237C349.447 277.612 349.602 278.077 349.602 278.631C349.602 279.105 349.473 279.531 349.214 279.909C348.958 280.284 348.609 280.58 348.166 280.795C347.723 281.011 347.218 281.119 346.653 281.119Z" fill="#BDBDBD"/>
<path id="Vector_2" d="M245.4 277.988L246.53 277.81C246.593 278.263 246.769 278.61 247.057 278.851C247.349 279.092 247.755 279.213 248.275 279.213C248.8 279.213 249.189 279.107 249.443 278.896C249.697 278.68 249.824 278.428 249.824 278.14C249.824 277.882 249.712 277.679 249.488 277.531C249.331 277.429 248.942 277.3 248.32 277.144C247.482 276.932 246.9 276.75 246.574 276.598C246.253 276.441 246.007 276.227 245.838 275.957C245.673 275.681 245.59 275.379 245.59 275.049C245.59 274.748 245.658 274.471 245.793 274.217C245.933 273.959 246.121 273.745 246.358 273.576C246.536 273.445 246.777 273.335 247.082 273.246C247.391 273.153 247.721 273.106 248.072 273.106C248.601 273.106 249.065 273.183 249.462 273.335C249.864 273.487 250.161 273.695 250.351 273.957C250.542 274.215 250.673 274.562 250.745 274.998L249.627 275.15C249.577 274.803 249.429 274.533 249.183 274.338C248.942 274.143 248.599 274.046 248.155 274.046C247.63 274.046 247.256 274.133 247.031 274.306C246.807 274.48 246.695 274.683 246.695 274.916C246.695 275.064 246.741 275.197 246.834 275.315C246.928 275.438 247.074 275.54 247.272 275.62C247.387 275.662 247.723 275.76 248.282 275.912C249.09 276.128 249.653 276.306 249.97 276.445C250.292 276.581 250.544 276.78 250.726 277.042C250.908 277.304 250.999 277.63 250.999 278.02C250.999 278.4 250.886 278.76 250.662 279.099C250.442 279.433 250.123 279.693 249.704 279.879C249.285 280.061 248.811 280.152 248.282 280.152C247.406 280.152 246.737 279.97 246.276 279.606C245.819 279.243 245.527 278.703 245.4 277.988ZM252.487 282.583V273.259H253.528V274.135C253.773 273.792 254.051 273.536 254.359 273.367C254.668 273.193 255.043 273.106 255.483 273.106C256.059 273.106 256.566 273.255 257.006 273.551C257.447 273.847 257.779 274.266 258.003 274.808C258.227 275.345 258.339 275.935 258.339 276.579C258.339 277.268 258.215 277.89 257.965 278.445C257.72 278.995 257.36 279.418 256.886 279.714C256.416 280.006 255.921 280.152 255.401 280.152C255.02 280.152 254.677 280.072 254.372 279.911C254.072 279.75 253.824 279.547 253.63 279.302V282.583H252.487ZM253.522 276.667C253.522 277.535 253.697 278.176 254.048 278.591C254.4 279.006 254.825 279.213 255.324 279.213C255.832 279.213 256.266 278.999 256.626 278.572C256.99 278.14 257.172 277.474 257.172 276.572C257.172 275.713 256.994 275.07 256.638 274.643C256.287 274.215 255.866 274.001 255.375 274.001C254.888 274.001 254.457 274.23 254.08 274.687C253.708 275.14 253.522 275.8 253.522 276.667ZM264.252 279.168C263.829 279.528 263.421 279.782 263.027 279.93C262.638 280.078 262.219 280.152 261.77 280.152C261.03 280.152 260.461 279.972 260.063 279.613C259.665 279.249 259.466 278.785 259.466 278.223C259.466 277.893 259.54 277.592 259.688 277.321C259.841 277.046 260.037 276.826 260.279 276.661C260.524 276.496 260.799 276.371 261.104 276.287C261.328 276.227 261.667 276.17 262.119 276.115C263.042 276.005 263.721 275.874 264.157 275.722C264.161 275.565 264.163 275.466 264.163 275.423C264.163 274.958 264.055 274.63 263.84 274.439C263.548 274.181 263.114 274.052 262.538 274.052C262.001 274.052 261.603 274.147 261.345 274.338C261.091 274.524 260.903 274.856 260.78 275.334L259.663 275.182C259.764 274.704 259.932 274.319 260.164 274.027C260.397 273.731 260.733 273.504 261.174 273.348C261.614 273.187 262.124 273.106 262.703 273.106C263.279 273.106 263.746 273.174 264.106 273.31C264.466 273.445 264.73 273.616 264.9 273.824C265.069 274.027 265.187 274.285 265.255 274.598C265.293 274.793 265.312 275.144 265.312 275.652V277.175C265.312 278.237 265.336 278.91 265.382 279.194C265.433 279.473 265.53 279.742 265.674 280H264.481C264.362 279.763 264.286 279.486 264.252 279.168ZM264.157 276.617C263.742 276.786 263.12 276.93 262.291 277.048C261.821 277.116 261.489 277.192 261.294 277.277C261.1 277.361 260.949 277.486 260.843 277.651C260.738 277.812 260.685 277.992 260.685 278.191C260.685 278.496 260.799 278.75 261.028 278.953C261.26 279.156 261.599 279.257 262.043 279.257C262.483 279.257 262.875 279.162 263.218 278.972C263.56 278.777 263.812 278.513 263.973 278.178C264.096 277.92 264.157 277.539 264.157 277.036V276.617ZM267.22 280V273.259H268.248V274.217C268.743 273.477 269.458 273.106 270.393 273.106C270.8 273.106 271.172 273.181 271.511 273.329C271.853 273.472 272.109 273.663 272.279 273.9C272.448 274.137 272.566 274.418 272.634 274.744C272.676 274.956 272.698 275.326 272.698 275.855V280H271.555V275.899C271.555 275.434 271.511 275.087 271.422 274.858C271.333 274.626 271.174 274.442 270.946 274.306C270.721 274.167 270.457 274.097 270.152 274.097C269.666 274.097 269.244 274.251 268.889 274.56C268.538 274.869 268.362 275.455 268.362 276.318V280H267.22Z" fill="#F485DC"/>
</g>
<g id="css-text">
<path id="Vector_3" d="M225 158H47V252H225V158Z" fill="#F86624" fill-opacity="0.04"/>
<path id="Vector_4" d="M107.512 216.406C106.746 219.469 105.725 222.244 104.449 224.732C103.173 227.221 101.61 229.342 99.76 231.097C97.941 232.851 95.804 234.207 93.348 235.164C90.923 236.121 88.132 236.6 84.974 236.6C80.603 236.6 76.903 235.706 73.872 233.92C70.841 232.102 68.353 229.693 66.407 226.694C64.493 223.664 63.1054 220.218 62.2441 216.358C61.4147 212.466 61 208.431 61 204.252C61 200.073 61.4147 196.037 62.2441 192.145C63.1054 188.254 64.477 184.824 66.359 181.857C68.273 178.891 70.698 176.514 73.633 174.728C76.568 172.909 80.157 172 84.399 172C85.771 172 87.159 172.175 88.562 172.526C89.966 172.877 91.274 173.42 92.486 174.153C93.699 174.855 94.751 175.732 95.645 176.785C96.57 177.838 97.224 179.05 97.606 180.422V173.053H106.555V196.691H97.606C97.606 194.745 97.367 192.831 96.889 190.949C96.41 189.035 95.645 187.344 94.592 185.877C93.539 184.409 92.215 183.213 90.62 182.288C89.025 181.363 87.143 180.9 84.974 180.9C82.166 180.9 79.869 181.586 78.083 182.958C76.297 184.33 74.861 186.132 73.776 188.365C72.692 190.598 71.926 193.103 71.479 195.878C71.065 198.653 70.857 201.445 70.857 204.252C70.857 207.059 71.065 209.867 71.479 212.674C71.926 215.481 72.676 218.001 73.728 220.234C74.781 222.436 76.217 224.222 78.035 225.594C79.853 226.965 82.166 227.651 84.974 227.651C89.025 227.651 92.135 226.359 94.305 223.775C96.506 221.191 98.26 217.714 99.568 213.344L107.512 216.406ZM156.514 218.368C156.514 221.239 156.019 223.807 155.03 226.072C154.073 228.305 152.749 230.203 151.059 231.767C149.4 233.33 147.406 234.526 145.077 235.355C142.78 236.185 140.324 236.6 137.708 236.6C134.773 236.6 132.125 236.073 129.765 235.02C127.404 233.968 125.378 232.229 123.687 229.805V235.499H114.787V215.114H123.687C123.687 217.156 124.038 218.958 124.74 220.521C125.474 222.085 126.431 223.409 127.611 224.493C128.792 225.546 130.163 226.359 131.726 226.934C133.29 227.476 134.948 227.747 136.703 227.747C139.67 227.747 142.062 227.061 143.881 225.689C145.699 224.318 146.608 222.132 146.608 219.134C146.608 217.571 146.321 216.231 145.747 215.114C145.205 213.998 144.407 213.009 143.354 212.147C142.334 211.254 141.073 210.489 139.574 209.851C138.075 209.181 136.368 208.479 134.454 207.745C132.189 206.979 129.924 206.118 127.659 205.161C125.394 204.204 123.368 203.024 121.582 201.62C119.796 200.216 118.344 198.494 117.227 196.452C116.111 194.379 115.553 191.779 115.553 188.652C115.553 185.909 116.047 183.516 117.036 181.475C118.057 179.401 119.397 177.662 121.056 176.259C122.746 174.855 124.692 173.802 126.893 173.101C129.127 172.367 131.487 172 133.976 172C136.847 172 139.303 172.606 141.345 173.818C143.418 175.031 145.013 176.642 146.13 178.651V173.053H155.03V192.48H146.13C146.13 188.812 145.157 185.957 143.211 183.915C141.297 181.841 138.713 180.805 135.459 180.805C132.588 180.805 130.195 181.475 128.281 182.814C126.399 184.154 125.458 186.036 125.458 188.461C125.458 189.705 125.697 190.774 126.176 191.667C126.686 192.528 127.404 193.326 128.329 194.06C129.286 194.761 130.482 195.431 131.918 196.069C133.353 196.675 135.012 197.345 136.894 198.079C139.255 198.909 141.6 199.85 143.929 200.902C146.257 201.955 148.347 203.247 150.197 204.778C152.047 206.31 153.563 208.176 154.743 210.377C155.923 212.546 156.514 215.21 156.514 218.368ZM208.052 218.368C208.052 221.239 207.557 223.807 206.568 226.072C205.611 228.305 204.287 230.203 202.597 231.767C200.938 233.33 198.944 234.526 196.615 235.355C194.318 236.185 191.862 236.6 189.246 236.6C186.311 236.6 183.663 236.073 181.303 235.02C178.942 233.968 176.916 232.229 175.225 229.805V235.499H166.325V215.114H175.225C175.225 217.156 175.576 218.958 176.278 220.521C177.012 222.085 177.969 223.409 179.149 224.493C180.33 225.546 181.701 226.359 183.265 226.934C184.828 227.476 186.487 227.747 188.241 227.747C191.208 227.747 193.6 227.061 195.419 225.689C197.237 224.318 198.146 222.132 198.146 219.134C198.146 217.571 197.859 216.231 197.285 215.114C196.743 213.998 195.945 213.009 194.892 212.147C193.872 211.254 192.612 210.489 191.112 209.851C189.613 209.181 187.906 208.479 185.992 207.745C183.727 206.979 181.462 206.118 179.197 205.161C176.932 204.204 174.906 203.024 173.12 201.62C171.334 200.216 169.882 198.494 168.766 196.452C167.649 194.379 167.091 191.779 167.091 188.652C167.091 185.909 167.585 183.516 168.574 181.475C169.595 179.401 170.935 177.662 172.594 176.259C174.284 174.855 176.23 173.802 178.432 173.101C180.665 172.367 183.025 172 185.514 172C188.385 172 190.841 172.606 192.883 173.818C194.956 175.031 196.551 176.642 197.668 178.651V173.053H206.568V192.48H197.668C197.668 188.812 196.695 185.957 194.749 183.915C192.835 181.841 190.251 180.805 186.997 180.805C184.126 180.805 181.733 181.475 179.819 182.814C177.937 184.154 176.996 186.036 176.996 188.461C176.996 189.705 177.235 190.774 177.714 191.667C178.224 192.528 178.942 193.326 179.867 194.06C180.824 194.761 182.02 195.431 183.456 196.069C184.891 196.675 186.55 197.345 188.433 198.079C190.793 198.909 193.138 199.85 195.467 200.902C197.795 201.955 199.885 203.247 201.735 204.778C203.586 206.31 205.101 208.176 206.281 210.377C207.461 212.546 208.052 215.21 208.052 218.368Z" fill="#F86624"/>
</g>
<rect id="css-rect" opacity="0.1" x="47" y="157" width="178" height="95" fill="#D9D9D9" fill-opacity="0.01"/>
<g id="lines">
<line id="line-4" x1="49" y1="157.5" x2="221" y2="157.5" stroke="#F86624"/>
<line id="line-3" x1="225.5" y1="163" x2="225.5" y2="248" stroke="#F86624"/>
<line id="line-2" x1="47.5" y1="163" x2="47.5" y2="248" stroke="#F86624"/>
<line id="line-1" x1="50" y1="250.5" x2="221" y2="250.5" stroke="#F86624"/>
</g>
</g>
</svg>
