<svg width="1015" height="755" viewBox="0 0 1015 755" fill="none" xmlns="http://www.w3.org/2000/svg">
<g id="html">
<path id="html-text" d="M100.253 123H90.348V95.677H70.25V123H60.345V60.554H70.25V86.729H90.348V60.554H100.253V123ZM154.04 83.3309H145.187V69.502H136.766V114.1H146.671V123H117.003V114.1H126.86V69.502H118.343V83.3309H109.538V60.554H154.04V83.3309ZM203.329 123H193.424V80.7469L187.155 103.189H179.499L173.326 80.7469V123H163.421V60.554H175.192L183.327 88.7859L191.462 60.554H203.329V123ZM254.867 123H214.959V60.554H224.864V114.1H254.867V123Z" fill="#F86624"/>
<path id="corner-2" d="M271.2 42.8H264.8V49.2H271.2V42.8Z" fill="white" stroke="#F86624" stroke-width="2.4"/>
<path id="corner-3" d="M271.2 134.8H264.8V141.2H271.2V134.8Z" fill="white" stroke="#F86624" stroke-width="2.4"/>
<path id="corner-4" d="M49.2 134.8H42.8V141.2H49.2V134.8Z" fill="white" stroke="#F86624" stroke-width="2.4"/>
<path id="corner-1" d="M49.2 42.8H42.8V49.2H49.2V42.8Z" fill="white" stroke="#F86624" stroke-width="2.4"/>
<path id="line-1" d="M49 45.5H264" stroke="#F86624"/>
<g id="html-dashed-lines">
<path id="html-dashed-lines-3" d="M0 45.6799H1015" stroke="#4946B6" stroke-width="0.64" stroke-dasharray="4 4"/>
<path id="html-dashed-lines-4" d="M0 138.68H1015" stroke="#4946B6" stroke-width="0.64" stroke-dasharray="4 4"/>
<path id="html-dashed-lines-1" d="M46.3199 0V755" stroke="#4946B6" stroke-width="0.64" stroke-dasharray="4 4"/>
<path id="html-dashed-lines-2" d="M267.32 0V755" stroke="#4946B6" stroke-width="0.64" stroke-dasharray="4 4"/>
</g>
<line id="line-2" x1="267.5" y1="49" x2="267.5" y2="135" stroke="#F86624"/>
<line id="line-3" x1="50" y1="138.5" x2="264" y2="138.5" stroke="#F86624"/>
<line id="line-4" x1="46.5" y1="50" x2="46.5" y2="135" stroke="#F86624"/>
<g id="span">
<path id="Vector" d="M431 156H284V187H431V156Z" fill="black" fill-opacity="0.72"/>
<path id="221 x 93" d="M350.903 176V175.233L353.784 172.08C354.122 171.71 354.401 171.389 354.619 171.116C354.838 170.841 355 170.582 355.105 170.341C355.213 170.097 355.267 169.841 355.267 169.574C355.267 169.267 355.193 169.001 355.045 168.777C354.901 168.553 354.702 168.379 354.449 168.257C354.196 168.135 353.912 168.074 353.597 168.074C353.261 168.074 352.969 168.143 352.719 168.283C352.472 168.419 352.28 168.611 352.143 168.858C352.01 169.105 351.943 169.395 351.943 169.727H350.938C350.938 169.216 351.055 168.767 351.291 168.381C351.527 167.994 351.848 167.693 352.254 167.477C352.663 167.261 353.122 167.153 353.631 167.153C354.142 167.153 354.595 167.261 354.99 167.477C355.385 167.693 355.695 167.984 355.919 168.351C356.143 168.717 356.256 169.125 356.256 169.574C356.256 169.895 356.197 170.209 356.081 170.516C355.967 170.82 355.768 171.159 355.484 171.534C355.203 171.906 354.812 172.361 354.312 172.898L352.352 174.994V175.062H356.409V176H350.903ZM358.169 176V175.233L361.05 172.08C361.388 171.71 361.666 171.389 361.885 171.116C362.104 170.841 362.266 170.582 362.371 170.341C362.479 170.097 362.533 169.841 362.533 169.574C362.533 169.267 362.459 169.001 362.311 168.777C362.166 168.553 361.967 168.379 361.714 168.257C361.462 168.135 361.178 168.074 360.862 168.074C360.527 168.074 360.234 168.143 359.984 168.283C359.737 168.419 359.545 168.611 359.409 168.858C359.276 169.105 359.209 169.395 359.209 169.727H358.203C358.203 169.216 358.321 168.767 358.557 168.381C358.793 167.994 359.114 167.693 359.52 167.477C359.929 167.261 360.388 167.153 360.896 167.153C361.408 167.153 361.861 167.261 362.256 167.477C362.651 167.693 362.96 167.984 363.185 168.351C363.409 168.717 363.521 169.125 363.521 169.574C363.521 169.895 363.463 170.209 363.347 170.516C363.233 170.82 363.034 171.159 362.75 171.534C362.469 171.906 362.078 172.361 361.578 172.898L359.618 174.994V175.062H363.675V176H358.169ZM368.503 167.273V176H367.446V168.381H367.395L365.264 169.795V168.722L367.446 167.273H368.503ZM379.518 174.432L374.712 169.625L375.359 168.977L380.166 173.784L379.518 174.432ZM375.359 174.432L374.712 173.784L379.518 168.977L380.166 169.625L375.359 174.432ZM388.451 167.153C388.809 167.156 389.167 167.224 389.525 167.358C389.883 167.491 390.21 167.713 390.505 168.023C390.801 168.33 391.038 168.749 391.217 169.28C391.396 169.811 391.485 170.477 391.485 171.278C391.485 172.054 391.412 172.743 391.264 173.345C391.119 173.945 390.909 174.45 390.633 174.862C390.36 175.274 390.028 175.587 389.636 175.8C389.247 176.013 388.806 176.119 388.315 176.119C387.826 176.119 387.39 176.023 387.007 175.83C386.626 175.634 386.314 175.362 386.069 175.016C385.828 174.666 385.673 174.261 385.605 173.801H386.645C386.738 174.202 386.924 174.533 387.203 174.794C387.484 175.053 387.855 175.182 388.315 175.182C388.988 175.182 389.52 174.888 389.909 174.3C390.301 173.712 390.497 172.881 390.497 171.807H390.429C390.27 172.045 390.081 172.251 389.862 172.425C389.643 172.598 389.4 172.732 389.133 172.825C388.866 172.919 388.582 172.966 388.281 172.966C387.781 172.966 387.322 172.842 386.904 172.595C386.49 172.345 386.157 172.003 385.907 171.568C385.66 171.131 385.537 170.631 385.537 170.068C385.537 169.534 385.656 169.045 385.895 168.602C386.136 168.156 386.474 167.801 386.909 167.537C387.346 167.273 387.86 167.145 388.451 167.153ZM388.451 168.091C388.093 168.091 387.771 168.18 387.484 168.359C387.2 168.536 386.974 168.774 386.806 169.075C386.642 169.374 386.559 169.705 386.559 170.068C386.559 170.432 386.639 170.763 386.798 171.061C386.96 171.357 387.18 171.592 387.458 171.768C387.74 171.942 388.059 172.028 388.417 172.028C388.687 172.028 388.939 171.976 389.172 171.871C389.404 171.763 389.608 171.616 389.781 171.432C389.957 171.244 390.095 171.033 390.194 170.797C390.294 170.558 390.343 170.31 390.343 170.051C390.343 169.71 390.261 169.391 390.096 169.092C389.934 168.794 389.71 168.553 389.423 168.368C389.139 168.183 388.815 168.091 388.451 168.091ZM396.11 176.119C395.548 176.119 395.046 176.023 394.606 175.83C394.168 175.636 393.82 175.368 393.562 175.024C393.306 174.678 393.167 174.276 393.144 173.818H394.218C394.241 174.099 394.337 174.342 394.508 174.547C394.678 174.749 394.901 174.905 395.177 175.016C395.452 175.126 395.758 175.182 396.093 175.182C396.468 175.182 396.8 175.116 397.09 174.986C397.38 174.855 397.607 174.673 397.772 174.44C397.937 174.207 398.019 173.938 398.019 173.631C398.019 173.31 397.94 173.027 397.781 172.783C397.621 172.536 397.388 172.342 397.082 172.203C396.775 172.064 396.4 171.994 395.957 171.994H395.258V171.057H395.957C396.303 171.057 396.607 170.994 396.869 170.869C397.133 170.744 397.339 170.568 397.487 170.341C397.637 170.114 397.712 169.847 397.712 169.54C397.712 169.244 397.647 168.987 397.516 168.768C397.386 168.55 397.201 168.379 396.962 168.257C396.727 168.135 396.448 168.074 396.127 168.074C395.826 168.074 395.542 168.129 395.275 168.24C395.011 168.348 394.795 168.506 394.627 168.713C394.46 168.918 394.369 169.165 394.354 169.455H393.332C393.349 168.997 393.487 168.597 393.745 168.253C394.004 167.906 394.342 167.636 394.759 167.443C395.18 167.25 395.641 167.153 396.144 167.153C396.684 167.153 397.147 167.263 397.533 167.482C397.92 167.697 398.217 167.983 398.424 168.338C398.631 168.693 398.735 169.077 398.735 169.489C398.735 169.98 398.606 170.399 398.347 170.746C398.092 171.092 397.744 171.332 397.303 171.466V171.534C397.854 171.625 398.285 171.859 398.594 172.237C398.904 172.612 399.059 173.077 399.059 173.631C399.059 174.105 398.93 174.531 398.671 174.909C398.415 175.284 398.066 175.58 397.623 175.795C397.18 176.011 396.675 176.119 396.11 176.119Z" fill="#BDBDBD"/>
<path id="Vector_2" d="M294.4 172.988L295.53 172.81C295.593 173.263 295.769 173.61 296.057 173.851C296.349 174.092 296.755 174.213 297.275 174.213C297.8 174.213 298.189 174.107 298.443 173.896C298.697 173.68 298.824 173.428 298.824 173.14C298.824 172.882 298.712 172.679 298.488 172.531C298.331 172.429 297.942 172.3 297.32 172.144C296.482 171.932 295.9 171.75 295.574 171.598C295.253 171.441 295.007 171.227 294.838 170.957C294.673 170.681 294.59 170.379 294.59 170.049C294.59 169.748 294.658 169.471 294.793 169.217C294.933 168.959 295.121 168.745 295.358 168.576C295.536 168.445 295.777 168.335 296.082 168.246C296.391 168.153 296.721 168.106 297.072 168.106C297.601 168.106 298.065 168.183 298.462 168.335C298.864 168.487 299.161 168.695 299.351 168.957C299.542 169.215 299.673 169.562 299.745 169.998L298.627 170.15C298.577 169.803 298.429 169.533 298.183 169.338C297.942 169.143 297.599 169.046 297.155 169.046C296.63 169.046 296.256 169.133 296.031 169.306C295.807 169.48 295.695 169.683 295.695 169.916C295.695 170.064 295.741 170.197 295.834 170.315C295.928 170.438 296.074 170.54 296.272 170.62C296.387 170.662 296.723 170.76 297.282 170.912C298.09 171.128 298.653 171.306 298.97 171.445C299.292 171.581 299.544 171.78 299.726 172.042C299.908 172.304 299.999 172.63 299.999 173.02C299.999 173.4 299.886 173.76 299.662 174.099C299.442 174.433 299.123 174.693 298.704 174.879C298.285 175.061 297.811 175.152 297.282 175.152C296.406 175.152 295.737 174.97 295.276 174.606C294.819 174.243 294.527 173.703 294.4 172.988ZM301.487 177.583V168.259H302.528V169.135C302.773 168.792 303.051 168.536 303.359 168.367C303.668 168.193 304.043 168.106 304.483 168.106C305.059 168.106 305.566 168.255 306.006 168.551C306.447 168.847 306.779 169.266 307.003 169.808C307.227 170.345 307.339 170.935 307.339 171.579C307.339 172.268 307.215 172.89 306.965 173.445C306.72 173.995 306.36 174.418 305.886 174.714C305.416 175.006 304.921 175.152 304.401 175.152C304.02 175.152 303.677 175.072 303.372 174.911C303.072 174.75 302.824 174.547 302.63 174.302V177.583H301.487ZM302.522 171.667C302.522 172.535 302.697 173.176 303.048 173.591C303.4 174.006 303.825 174.213 304.324 174.213C304.832 174.213 305.266 173.999 305.626 173.572C305.99 173.14 306.172 172.474 306.172 171.572C306.172 170.713 305.994 170.07 305.638 169.643C305.287 169.215 304.866 169.001 304.375 169.001C303.888 169.001 303.457 169.23 303.08 169.687C302.708 170.14 302.522 170.8 302.522 171.667ZM313.252 174.168C312.829 174.528 312.421 174.782 312.027 174.93C311.638 175.078 311.219 175.152 310.77 175.152C310.03 175.152 309.461 174.972 309.063 174.613C308.665 174.249 308.466 173.785 308.466 173.223C308.466 172.893 308.54 172.592 308.688 172.321C308.841 172.046 309.037 171.826 309.279 171.661C309.524 171.496 309.799 171.371 310.104 171.287C310.328 171.227 310.667 171.17 311.119 171.115C312.042 171.005 312.721 170.874 313.157 170.722C313.161 170.565 313.163 170.466 313.163 170.423C313.163 169.958 313.055 169.63 312.84 169.439C312.548 169.181 312.114 169.052 311.538 169.052C311.001 169.052 310.603 169.147 310.345 169.338C310.091 169.524 309.903 169.856 309.78 170.334L308.663 170.182C308.764 169.704 308.932 169.319 309.164 169.027C309.397 168.731 309.733 168.504 310.174 168.348C310.614 168.187 311.124 168.106 311.703 168.106C312.279 168.106 312.746 168.174 313.106 168.31C313.466 168.445 313.73 168.616 313.9 168.824C314.069 169.027 314.187 169.285 314.255 169.598C314.293 169.793 314.312 170.144 314.312 170.652V172.175C314.312 173.237 314.336 173.91 314.382 174.194C314.433 174.473 314.53 174.742 314.674 175H313.481C313.362 174.763 313.286 174.486 313.252 174.168ZM313.157 171.617C312.742 171.786 312.12 171.93 311.291 172.048C310.821 172.116 310.489 172.192 310.294 172.277C310.1 172.361 309.949 172.486 309.843 172.651C309.738 172.812 309.685 172.992 309.685 173.191C309.685 173.496 309.799 173.75 310.028 173.953C310.26 174.156 310.599 174.257 311.043 174.257C311.483 174.257 311.875 174.162 312.218 173.972C312.56 173.777 312.812 173.513 312.973 173.178C313.096 172.92 313.157 172.539 313.157 172.036V171.617ZM316.22 175V168.259H317.248V169.217C317.743 168.477 318.458 168.106 319.393 168.106C319.8 168.106 320.172 168.181 320.511 168.329C320.853 168.472 321.109 168.663 321.279 168.9C321.448 169.137 321.566 169.418 321.634 169.744C321.676 169.956 321.698 170.326 321.698 170.855V175H320.555V170.899C320.555 170.434 320.511 170.087 320.422 169.858C320.333 169.626 320.174 169.442 319.946 169.306C319.721 169.167 319.457 169.097 319.152 169.097C318.666 169.097 318.244 169.251 317.889 169.56C317.538 169.869 317.362 170.455 317.362 171.318V175H316.22Z" fill="#F485DC"/>
</g>
<rect id="html-rect" x="46" y="44" width="221" height="95" fill="#D9D9D9" fill-opacity="0.01"/>
</g>
</svg>
