<svg width="1016" height="801" viewBox="0 0 1016 801" fill="none" xmlns="http://www.w3.org/2000/svg">
<g id="js">
<g id="js-dashed-lines">
<path id="js-line-4" d="M1 281.5H1016" stroke="#4946B6" stroke-width="0.64" stroke-dasharray="4 4"/>
<path id="js-line-3" d="M0.5 375.5H1015.5" stroke="#4946B6" stroke-width="0.64" stroke-dasharray="4 4"/>
<path id="js-line-2" d="M49.3201 0V800" stroke="#4946B6" stroke-width="0.64" stroke-dasharray="4 4"/>
<path id="js-line-1" d="M176.5 0V801" stroke="#4946B6" stroke-width="0.64" stroke-dasharray="4 4"/>
</g>
<g id="js-span">
<path id="Vector" d="M334 387H187V418H334V387Z" fill="black" fill-opacity="0.72"/>
<path id="127 x 93" d="M256.972 398.273V407H255.915V399.381H255.864L253.733 400.795V399.722L255.915 398.273H256.972ZM259.482 407V406.233L262.362 403.08C262.7 402.71 262.979 402.389 263.197 402.116C263.416 401.841 263.578 401.582 263.683 401.341C263.791 401.097 263.845 400.841 263.845 400.574C263.845 400.267 263.771 400.001 263.624 399.777C263.479 399.553 263.28 399.379 263.027 399.257C262.774 399.135 262.49 399.074 262.175 399.074C261.839 399.074 261.547 399.143 261.297 399.283C261.05 399.419 260.858 399.611 260.722 399.858C260.588 400.105 260.521 400.395 260.521 400.727H259.516C259.516 400.216 259.634 399.767 259.869 399.381C260.105 398.994 260.426 398.693 260.832 398.477C261.241 398.261 261.7 398.153 262.209 398.153C262.72 398.153 263.173 398.261 263.568 398.477C263.963 398.693 264.273 398.984 264.497 399.351C264.722 399.717 264.834 400.125 264.834 400.574C264.834 400.895 264.776 401.209 264.659 401.516C264.545 401.82 264.347 402.159 264.062 402.534C263.781 402.906 263.391 403.361 262.891 403.898L260.93 405.994V406.062H264.987V407H259.482ZM267.02 407L270.923 399.278V399.21H266.423V398.273H272.014V399.261L268.128 407H267.02ZM282.108 405.432L277.301 400.625L277.949 399.977L282.756 404.784L282.108 405.432ZM277.949 405.432L277.301 404.784L282.108 399.977L282.756 400.625L277.949 405.432ZM291.041 398.153C291.399 398.156 291.757 398.224 292.115 398.358C292.473 398.491 292.8 398.713 293.095 399.023C293.391 399.33 293.628 399.749 293.807 400.28C293.986 400.811 294.075 401.477 294.075 402.278C294.075 403.054 294.001 403.743 293.854 404.345C293.709 404.945 293.499 405.45 293.223 405.862C292.95 406.274 292.618 406.587 292.226 406.8C291.837 407.013 291.396 407.119 290.905 407.119C290.416 407.119 289.98 407.023 289.597 406.83C289.216 406.634 288.903 406.362 288.659 406.016C288.418 405.666 288.263 405.261 288.195 404.801H289.234C289.328 405.202 289.514 405.533 289.793 405.794C290.074 406.053 290.445 406.182 290.905 406.182C291.578 406.182 292.109 405.888 292.499 405.3C292.891 404.712 293.087 403.881 293.087 402.807H293.018C292.859 403.045 292.67 403.251 292.452 403.425C292.233 403.598 291.99 403.732 291.723 403.825C291.456 403.919 291.172 403.966 290.871 403.966C290.371 403.966 289.912 403.842 289.494 403.595C289.08 403.345 288.747 403.003 288.497 402.568C288.25 402.131 288.126 401.631 288.126 401.068C288.126 400.534 288.246 400.045 288.484 399.602C288.726 399.156 289.064 398.801 289.499 398.537C289.936 398.273 290.45 398.145 291.041 398.153ZM291.041 399.091C290.683 399.091 290.361 399.18 290.074 399.359C289.79 399.536 289.564 399.774 289.396 400.075C289.232 400.374 289.149 400.705 289.149 401.068C289.149 401.432 289.229 401.763 289.388 402.061C289.55 402.357 289.77 402.592 290.048 402.768C290.33 402.942 290.649 403.028 291.007 403.028C291.277 403.028 291.528 402.976 291.761 402.871C291.994 402.763 292.197 402.616 292.371 402.432C292.547 402.244 292.685 402.033 292.784 401.797C292.884 401.558 292.933 401.31 292.933 401.051C292.933 400.71 292.851 400.391 292.686 400.092C292.524 399.794 292.3 399.553 292.013 399.368C291.729 399.183 291.405 399.091 291.041 399.091ZM298.7 407.119C298.137 407.119 297.636 407.023 297.196 406.83C296.758 406.636 296.41 406.368 296.152 406.024C295.896 405.678 295.757 405.276 295.734 404.818H296.808C296.831 405.099 296.927 405.342 297.098 405.547C297.268 405.749 297.491 405.905 297.767 406.016C298.042 406.126 298.348 406.182 298.683 406.182C299.058 406.182 299.39 406.116 299.68 405.986C299.97 405.855 300.197 405.673 300.362 405.44C300.527 405.207 300.609 404.938 300.609 404.631C300.609 404.31 300.529 404.027 300.37 403.783C300.211 403.536 299.978 403.342 299.672 403.203C299.365 403.064 298.99 402.994 298.547 402.994H297.848V402.057H298.547C298.893 402.057 299.197 401.994 299.458 401.869C299.723 401.744 299.929 401.568 300.076 401.341C300.227 401.114 300.302 400.847 300.302 400.54C300.302 400.244 300.237 399.987 300.106 399.768C299.975 399.55 299.791 399.379 299.552 399.257C299.316 399.135 299.038 399.074 298.717 399.074C298.416 399.074 298.132 399.129 297.865 399.24C297.6 399.348 297.385 399.506 297.217 399.713C297.049 399.918 296.958 400.165 296.944 400.455H295.922C295.939 399.997 296.076 399.597 296.335 399.253C296.593 398.906 296.931 398.636 297.349 398.443C297.77 398.25 298.231 398.153 298.734 398.153C299.274 398.153 299.737 398.263 300.123 398.482C300.51 398.697 300.806 398.983 301.014 399.338C301.221 399.693 301.325 400.077 301.325 400.489C301.325 400.98 301.196 401.399 300.937 401.746C300.681 402.092 300.333 402.332 299.893 402.466V402.534C300.444 402.625 300.875 402.859 301.184 403.237C301.494 403.612 301.649 404.077 301.649 404.631C301.649 405.105 301.52 405.531 301.261 405.909C301.005 406.284 300.656 406.58 300.213 406.795C299.77 407.011 299.265 407.119 298.7 407.119Z" fill="#BDBDBD"/>
<path id="Vector_2" d="M197.4 403.988L198.53 403.81C198.593 404.263 198.769 404.61 199.057 404.851C199.349 405.092 199.755 405.213 200.275 405.213C200.8 405.213 201.189 405.107 201.443 404.896C201.697 404.68 201.824 404.428 201.824 404.14C201.824 403.882 201.712 403.679 201.488 403.531C201.331 403.429 200.942 403.3 200.32 403.144C199.482 402.932 198.9 402.75 198.574 402.598C198.253 402.441 198.007 402.227 197.838 401.957C197.673 401.681 197.59 401.379 197.59 401.049C197.59 400.748 197.658 400.471 197.793 400.217C197.933 399.959 198.121 399.745 198.358 399.576C198.536 399.445 198.777 399.335 199.082 399.246C199.391 399.153 199.721 399.106 200.072 399.106C200.601 399.106 201.065 399.183 201.462 399.335C201.864 399.487 202.161 399.695 202.351 399.957C202.542 400.215 202.673 400.562 202.745 400.998L201.627 401.15C201.577 400.803 201.429 400.533 201.183 400.338C200.942 400.143 200.599 400.046 200.155 400.046C199.63 400.046 199.256 400.133 199.031 400.306C198.807 400.48 198.695 400.683 198.695 400.916C198.695 401.064 198.741 401.197 198.834 401.315C198.928 401.438 199.074 401.54 199.272 401.62C199.387 401.662 199.723 401.76 200.282 401.912C201.09 402.128 201.653 402.306 201.97 402.445C202.292 402.581 202.544 402.78 202.726 403.042C202.908 403.304 202.999 403.63 202.999 404.02C202.999 404.4 202.886 404.76 202.662 405.099C202.442 405.433 202.123 405.693 201.704 405.879C201.285 406.061 200.811 406.152 200.282 406.152C199.406 406.152 198.737 405.97 198.276 405.606C197.819 405.243 197.527 404.703 197.4 403.988ZM204.487 408.583V399.259H205.528V400.135C205.773 399.792 206.051 399.536 206.359 399.367C206.668 399.193 207.043 399.106 207.483 399.106C208.059 399.106 208.566 399.255 209.006 399.551C209.447 399.847 209.779 400.266 210.003 400.808C210.227 401.345 210.339 401.935 210.339 402.579C210.339 403.268 210.215 403.89 209.965 404.445C209.72 404.995 209.36 405.418 208.886 405.714C208.416 406.006 207.921 406.152 207.401 406.152C207.02 406.152 206.677 406.072 206.372 405.911C206.072 405.75 205.824 405.547 205.63 405.302V408.583H204.487ZM205.522 402.667C205.522 403.535 205.697 404.176 206.048 404.591C206.4 405.006 206.825 405.213 207.324 405.213C207.832 405.213 208.266 404.999 208.626 404.572C208.99 404.14 209.172 403.474 209.172 402.572C209.172 401.713 208.994 401.07 208.638 400.643C208.287 400.215 207.866 400.001 207.375 400.001C206.888 400.001 206.457 400.23 206.08 400.687C205.708 401.14 205.522 401.8 205.522 402.667ZM216.252 405.168C215.829 405.528 215.421 405.782 215.027 405.93C214.638 406.078 214.219 406.152 213.77 406.152C213.03 406.152 212.461 405.972 212.063 405.613C211.665 405.249 211.466 404.785 211.466 404.223C211.466 403.893 211.54 403.592 211.688 403.321C211.841 403.046 212.037 402.826 212.279 402.661C212.524 402.496 212.799 402.371 213.104 402.287C213.328 402.227 213.667 402.17 214.119 402.115C215.042 402.005 215.721 401.874 216.157 401.722C216.161 401.565 216.163 401.466 216.163 401.423C216.163 400.958 216.055 400.63 215.84 400.439C215.548 400.181 215.114 400.052 214.538 400.052C214.001 400.052 213.603 400.147 213.345 400.338C213.091 400.524 212.903 400.856 212.78 401.334L211.663 401.182C211.764 400.704 211.932 400.319 212.164 400.027C212.397 399.731 212.733 399.504 213.174 399.348C213.614 399.187 214.124 399.106 214.703 399.106C215.279 399.106 215.746 399.174 216.106 399.31C216.466 399.445 216.73 399.616 216.9 399.824C217.069 400.027 217.187 400.285 217.255 400.598C217.293 400.793 217.312 401.144 217.312 401.652V403.175C217.312 404.237 217.336 404.91 217.382 405.194C217.433 405.473 217.53 405.742 217.674 406H216.481C216.362 405.763 216.286 405.486 216.252 405.168ZM216.157 402.617C215.742 402.786 215.12 402.93 214.291 403.048C213.821 403.116 213.489 403.192 213.294 403.277C213.1 403.361 212.949 403.486 212.843 403.651C212.738 403.812 212.685 403.992 212.685 404.191C212.685 404.496 212.799 404.75 213.028 404.953C213.26 405.156 213.599 405.257 214.043 405.257C214.483 405.257 214.875 405.162 215.218 404.972C215.56 404.777 215.812 404.513 215.973 404.178C216.096 403.92 216.157 403.539 216.157 403.036V402.617ZM219.22 406V399.259H220.248V400.217C220.743 399.477 221.458 399.106 222.393 399.106C222.8 399.106 223.172 399.181 223.511 399.329C223.853 399.472 224.109 399.663 224.279 399.9C224.448 400.137 224.566 400.418 224.634 400.744C224.676 400.956 224.698 401.326 224.698 401.855V406H223.555V401.899C223.555 401.434 223.511 401.087 223.422 400.858C223.333 400.626 223.174 400.442 222.946 400.306C222.721 400.167 222.457 400.097 222.152 400.097C221.666 400.097 221.244 400.251 220.889 400.56C220.538 400.869 220.362 401.455 220.362 402.318V406H219.22Z" fill="#F485DC"/>
</g>
<g id="js-text">
<path id="Vector_3" d="M175.645 282H48V375H175.645V282Z" fill="#F86624" fill-opacity="0.04"/>
<path id="Vector_4" d="M103.349 339.669C103.349 347.58 101.658 353.721 98.2767 358.092C94.9267 362.43 89.7907 364.6 82.8677 364.6C77.3177 364.6 72.6597 363.148 68.8957 360.245C65.1307 357.31 62.4993 352.94 61 347.134L69.9007 343.784C70.8257 347.517 72.3247 350.436 74.3987 352.541C76.5037 354.615 79.3267 355.651 82.8677 355.651C85.0057 355.651 86.7597 355.221 88.1317 354.359C89.5037 353.466 90.5727 352.286 91.3377 350.818C92.1357 349.351 92.6777 347.66 92.9647 345.746C93.2837 343.8 93.4437 341.774 93.4437 339.669V301.053H103.349V339.669ZM155.653 346.368C155.653 349.239 155.158 351.807 154.169 354.072C153.212 356.305 151.888 358.203 150.198 359.767C148.539 361.33 146.545 362.526 144.216 363.355C141.919 364.185 139.463 364.6 136.847 364.6C133.912 364.6 131.264 364.073 128.904 363.02C126.543 361.968 124.517 360.229 122.826 357.805V363.499H113.926V343.114H122.826C122.826 345.156 123.177 346.958 123.879 348.521C124.613 350.085 125.57 351.409 126.75 352.493C127.931 353.546 129.302 354.359 130.865 354.934C132.429 355.476 134.087 355.747 135.842 355.747C138.809 355.747 141.201 355.061 143.02 353.689C144.838 352.318 145.747 350.132 145.747 347.134C145.747 345.571 145.46 344.231 144.886 343.114C144.344 341.998 143.546 341.009 142.493 340.147C141.473 339.254 138.713 337.851 138.713 337.851C138.713 337.851 135.507 336.479 133.593 335.745C131.328 334.979 129.063 334.118 126.798 333.161C124.533 332.204 122.507 331.024 120.721 329.62C118.935 328.216 117.483 326.494 116.366 324.452C115.25 322.379 114.692 319.779 114.692 316.652C114.692 313.909 115.186 311.516 116.175 309.475C117.196 307.401 118.536 305.662 120.195 304.259C121.885 302.855 123.831 301.802 126.032 301.101C128.266 300.367 130.626 300 133.115 300C135.986 300 138.442 300.606 140.484 301.818C142.557 303.031 144.152 304.642 145.269 306.651V301.053H154.169V320.48H145.269C145.269 316.812 144.296 313.957 142.35 311.915C140.436 309.841 137.852 308.805 134.598 308.805C131.727 308.805 129.334 309.475 127.42 310.814C125.538 312.154 124.597 314.036 124.597 316.461C124.597 317.705 124.836 318.774 125.315 319.667C125.825 320.528 126.543 321.326 127.468 322.06C128.425 322.761 129.621 323.431 131.057 324.069C132.492 324.675 134.151 325.345 136.033 326.079C138.394 326.909 140.739 327.85 143.068 328.902C145.396 329.955 147.486 331.247 149.336 332.778C151.186 334.31 152.702 336.176 153.882 338.377C155.062 340.546 155.653 343.21 155.653 346.368Z" fill="#F86624"/>
</g>
<g id="js-lines">
<line id="js-line-4_2" x1="51" y1="281.5" x2="173" y2="281.5" stroke="#F86726"/>
<line id="js-line-3_2" x1="176.5" y1="286" x2="176.5" y2="372" stroke="#F86726"/>
<line id="js-line-2_2" x1="173" y1="375.5" x2="53" y2="375.5" stroke="#F86726"/>
<line id="js-line-1_2" x1="49.5" y1="284" x2="49.5" y2="372" stroke="#F86726"/>
</g>
<g id="corners">
<path id="js-corner-3" d="M179.4 372H173V378.4H179.4V372Z" fill="white" stroke="#F86624" stroke-width="2.4"/>
<path id="js-corner-2" d="M179.4 279H173V285.4H179.4V279Z" fill="white" stroke="#F86624" stroke-width="2.4"/>
<path id="js-corner-1" d="M51.4 278H45V284.4H51.4V278Z" fill="white" stroke="#F86624" stroke-width="2.4"/>
<path id="js-corner-4" d="M52.4 372H46V378.4H52.4V372Z" fill="white" stroke="#F86624" stroke-width="2.4"/>
</g>
</g>
</svg>
