<svg width="164" height="37" viewBox="0 0 164 37" fill="none" xmlns="http://www.w3.org/2000/svg">
<g id="logo">
<g id="logo-icon">
<path id="Union" fill-rule="evenodd" clip-rule="evenodd" d="M10.1597 0.5H14.0668V14.6571H10.1597V0.5ZM17.3043 10.5163L15.0438 14.6571H14.067V10.5163H17.3043ZM26.7374 0.5H22.2162L17.3043 10.5163H21.8255L26.7374 0.5Z" fill="#4946B6"/>
<path id="Union_2" fill-rule="evenodd" clip-rule="evenodd" d="M36 10.5967L36 14.5137L26.0086 14.5137L26.0086 17.7591L21.8781 15.4928L21.8781 14.5136L21.8783 14.5136L21.8783 10.5967L36 10.5967ZM36 27.2158L36 22.6833L26.0088 17.7591L26.0088 22.2916L36 27.2158Z" fill="#4946B6"/>
<path id="Union_3" fill-rule="evenodd" clip-rule="evenodd" d="M25.9286 36.5H22.0214V22.3429H25.9286V36.5ZM18.7839 26.4837L21.0444 22.3429H22.0212V26.4837H18.7839ZM9.35103 36.5H13.8722L18.7841 26.4837H14.2629L9.35103 36.5Z" fill="#4946B6"/>
<path id="Union_4" fill-rule="evenodd" clip-rule="evenodd" d="M0 26.584L1.92619e-07 22.667L14.1217 22.667L14.1217 26.584L0 26.584ZM9.99097 19.4215L14.1214 21.6877L14.1214 22.667L9.99097 22.667L9.99097 19.4215ZM8.17254e-07 9.96478L5.94367e-07 14.4973L9.99122 19.4215L9.99122 14.889L8.17254e-07 9.96478Z" fill="#4946B6"/>
</g>
<path id="logo-text" d="M52.1699 11.1836V16.4473C53.0553 15.4121 54.1133 14.8945 55.3438 14.8945C55.9753 14.8945 56.5449 15.0117 57.0527 15.2461C57.5605 15.4805 57.9414 15.7799 58.1953 16.1445C58.4557 16.5091 58.6315 16.9128 58.7227 17.3555C58.8203 17.7982 58.8691 18.485 58.8691 19.416V25.5H56.125V20.0215C56.125 18.9342 56.0729 18.2441 55.9688 17.9512C55.8646 17.6582 55.679 17.4271 55.4121 17.2578C55.1517 17.082 54.8229 16.9941 54.4258 16.9941C53.9701 16.9941 53.5632 17.1048 53.2051 17.3262C52.847 17.5475 52.5833 17.8828 52.4141 18.332C52.2513 18.7747 52.1699 19.4323 52.1699 20.3047V25.5H49.4258V11.1836H52.1699ZM66.122 15.1289V17.3164H64.247V21.4961C64.247 22.3424 64.2632 22.8372 64.2958 22.9805C64.3349 23.1172 64.4162 23.2311 64.5399 23.3223C64.6701 23.4134 64.8264 23.459 65.0087 23.459C65.2626 23.459 65.6304 23.3711 66.1122 23.1953L66.3466 25.3242C65.7086 25.5977 64.9859 25.7344 64.1786 25.7344C63.6838 25.7344 63.2379 25.653 62.8407 25.4902C62.4436 25.321 62.1506 25.1061 61.9618 24.8457C61.7795 24.5788 61.6526 24.2207 61.581 23.7715C61.5224 23.4525 61.4931 22.8079 61.4931 21.8379V17.3164H60.2333V15.1289H61.4931V13.0684L64.247 11.4668V15.1289H66.122ZM67.5252 15.1289H70.0545V16.5449C70.9594 15.4447 72.0369 14.8945 73.2869 14.8945C73.951 14.8945 74.5271 15.0312 75.0154 15.3047C75.5037 15.5781 75.9041 15.9915 76.2166 16.5449C76.6723 15.9915 77.1639 15.5781 77.6912 15.3047C78.2185 15.0312 78.7817 14.8945 79.3807 14.8945C80.1424 14.8945 80.7869 15.0508 81.3143 15.3633C81.8416 15.6693 82.2355 16.1217 82.4959 16.7207C82.6847 17.1634 82.7791 17.8796 82.7791 18.8691V25.5H80.035V19.5723C80.035 18.5436 79.9406 17.8796 79.7518 17.5801C79.4978 17.1895 79.1072 16.9941 78.5799 16.9941C78.1958 16.9941 77.8344 17.1113 77.4959 17.3457C77.1573 17.5801 76.9132 17.9251 76.7635 18.3809C76.6137 18.8301 76.5389 19.543 76.5389 20.5195V25.5H73.7947V19.8164C73.7947 18.8073 73.7459 18.1562 73.6482 17.8633C73.5506 17.5703 73.3976 17.3522 73.1893 17.209C72.9874 17.0658 72.7107 16.9941 72.3592 16.9941C71.936 16.9941 71.5551 17.1081 71.2166 17.3359C70.8781 17.5638 70.6339 17.8926 70.4842 18.3223C70.3409 18.752 70.2693 19.4648 70.2693 20.4609V25.5H67.5252V15.1289ZM85.2272 25.5V11.1836H87.9714V25.5H85.2272ZM90.4195 15.1289H92.9781V16.6523C93.3101 16.1315 93.7594 15.7083 94.3258 15.3828C94.8922 15.0573 95.5204 14.8945 96.2105 14.8945C97.415 14.8945 98.4371 15.3665 99.2769 16.3105C100.117 17.2546 100.537 18.5697 100.537 20.2559C100.537 21.9876 100.114 23.3353 99.2672 24.2988C98.4208 25.2559 97.3954 25.7344 96.191 25.7344C95.6181 25.7344 95.0973 25.6204 94.6285 25.3926C94.1663 25.1647 93.678 24.7741 93.1637 24.2207V29.4453H90.4195V15.1289ZM93.1344 20.1387C93.1344 21.304 93.3655 22.1667 93.8277 22.7266C94.29 23.2799 94.8531 23.5566 95.5172 23.5566C96.1552 23.5566 96.6858 23.3027 97.109 22.7949C97.5321 22.2806 97.7437 21.4408 97.7437 20.2754C97.7437 19.1882 97.5256 18.3809 97.0894 17.8535C96.6532 17.3262 96.1129 17.0625 95.4683 17.0625C94.7978 17.0625 94.2411 17.3229 93.7984 17.8438C93.3557 18.3581 93.1344 19.123 93.1344 20.1387ZM105.055 25.5H102.311V15.1289H104.86V16.6035C105.296 15.9069 105.687 15.4479 106.032 15.2266C106.383 15.0052 106.78 14.8945 107.223 14.8945C107.848 14.8945 108.45 15.0671 109.03 15.4121L108.18 17.8047C107.718 17.5052 107.288 17.3555 106.891 17.3555C106.507 17.3555 106.181 17.4629 105.915 17.6777C105.648 17.8861 105.436 18.2669 105.28 18.8203C105.13 19.3737 105.055 20.5326 105.055 22.2969V25.5ZM111.976 18.293L109.486 17.8438C109.766 16.8411 110.247 16.099 110.931 15.6172C111.615 15.1354 112.63 14.8945 113.978 14.8945C115.202 14.8945 116.113 15.041 116.712 15.334C117.311 15.6204 117.731 15.9883 117.972 16.4375C118.219 16.8802 118.343 17.6973 118.343 18.8887L118.314 22.0918C118.314 23.0033 118.356 23.6771 118.441 24.1133C118.532 24.543 118.698 25.0052 118.939 25.5H116.224C116.152 25.3177 116.064 25.0475 115.96 24.6895C115.915 24.5267 115.882 24.4193 115.863 24.3672C115.394 24.8229 114.893 25.1647 114.359 25.3926C113.825 25.6204 113.255 25.7344 112.65 25.7344C111.582 25.7344 110.739 25.4447 110.12 24.8652C109.509 24.2858 109.203 23.5534 109.203 22.668C109.203 22.082 109.342 21.5612 109.622 21.1055C109.902 20.6432 110.293 20.2917 110.794 20.0508C111.302 19.8034 112.031 19.5885 112.982 19.4062C114.264 19.1654 115.153 18.9408 115.648 18.7324V18.459C115.648 17.9316 115.518 17.5573 115.257 17.3359C114.997 17.1081 114.505 16.9941 113.783 16.9941C113.294 16.9941 112.913 17.0918 112.64 17.2871C112.367 17.4759 112.145 17.8112 111.976 18.293ZM115.648 20.5195C115.296 20.6367 114.74 20.7767 113.978 20.9395C113.216 21.1022 112.718 21.2617 112.484 21.418C112.126 21.6719 111.947 21.9941 111.947 22.3848C111.947 22.7689 112.09 23.1009 112.376 23.3809C112.663 23.6608 113.027 23.8008 113.47 23.8008C113.965 23.8008 114.437 23.638 114.886 23.3125C115.218 23.0651 115.436 22.7624 115.54 22.4043C115.612 22.1699 115.648 21.724 115.648 21.0664V20.5195ZM129.805 18.1953L127.1 18.6836C127.009 18.1432 126.8 17.7363 126.475 17.4629C126.156 17.1895 125.739 17.0527 125.225 17.0527C124.541 17.0527 123.994 17.2904 123.584 17.7656C123.181 18.2344 122.979 19.0221 122.979 20.1289C122.979 21.3594 123.184 22.2285 123.594 22.7363C124.011 23.2441 124.567 23.498 125.264 23.498C125.785 23.498 126.211 23.3516 126.543 23.0586C126.875 22.7591 127.11 22.248 127.246 21.5254L129.942 21.9844C129.662 23.2214 129.125 24.1556 128.33 24.7871C127.536 25.4186 126.472 25.7344 125.137 25.7344C123.62 25.7344 122.409 25.2559 121.504 24.2988C120.606 23.3418 120.157 22.0169 120.157 20.3242C120.157 18.612 120.609 17.2806 121.514 16.3301C122.419 15.373 123.643 14.8945 125.186 14.8945C126.449 14.8945 127.451 15.168 128.194 15.7148C128.942 16.2552 129.479 17.082 129.805 18.1953ZM136.355 15.1289V17.3164H134.48V21.4961C134.48 22.3424 134.496 22.8372 134.528 22.9805C134.568 23.1172 134.649 23.2311 134.773 23.3223C134.903 23.4134 135.059 23.459 135.241 23.459C135.495 23.459 135.863 23.3711 136.345 23.1953L136.579 25.3242C135.941 25.5977 135.219 25.7344 134.411 25.7344C133.917 25.7344 133.471 25.653 133.073 25.4902C132.676 25.321 132.383 25.1061 132.195 24.8457C132.012 24.5788 131.885 24.2207 131.814 23.7715C131.755 23.4525 131.726 22.8079 131.726 21.8379V17.3164H130.466V15.1289H131.726V13.0684L134.48 11.4668V15.1289H136.355ZM137.963 13.7227V11.1836H140.707V13.7227H137.963ZM137.963 25.5V15.1289H140.707V25.5H137.963ZM152.276 18.1953L149.571 18.6836C149.48 18.1432 149.272 17.7363 148.946 17.4629C148.627 17.1895 148.211 17.0527 147.696 17.0527C147.013 17.0527 146.466 17.2904 146.056 17.7656C145.652 18.2344 145.45 19.0221 145.45 20.1289C145.45 21.3594 145.655 22.2285 146.065 22.7363C146.482 23.2441 147.039 23.498 147.735 23.498C148.256 23.498 148.683 23.3516 149.015 23.0586C149.347 22.7591 149.581 22.248 149.718 21.5254L152.413 21.9844C152.133 23.2214 151.596 24.1556 150.802 24.7871C150.007 25.4186 148.943 25.7344 147.608 25.7344C146.091 25.7344 144.88 25.2559 143.976 24.2988C143.077 23.3418 142.628 22.0169 142.628 20.3242C142.628 18.612 143.08 17.2806 143.985 16.3301C144.89 15.373 146.114 14.8945 147.657 14.8945C148.92 14.8945 149.923 15.168 150.665 15.7148C151.414 16.2552 151.951 17.082 152.276 18.1953ZM160.076 22.1992L162.81 22.6582C162.459 23.6608 161.902 24.4258 161.14 24.9531C160.385 25.474 159.438 25.7344 158.299 25.7344C156.495 25.7344 155.161 25.1452 154.295 23.9668C153.611 23.0228 153.269 21.8314 153.269 20.3926C153.269 18.6738 153.719 17.3294 154.617 16.3594C155.515 15.3828 156.652 14.8945 158.025 14.8945C159.568 14.8945 160.786 15.4056 161.678 16.4277C162.57 17.4434 162.996 19.0026 162.957 21.1055H156.082C156.101 21.9193 156.323 22.554 156.746 23.0098C157.169 23.459 157.696 23.6836 158.328 23.6836C158.758 23.6836 159.119 23.5664 159.412 23.332C159.705 23.0977 159.926 22.7201 160.076 22.1992ZM160.232 19.4258C160.213 18.6315 160.008 18.0293 159.617 17.6191C159.226 17.2025 158.751 16.9941 158.191 16.9941C157.592 16.9941 157.098 17.2122 156.707 17.6484C156.316 18.0846 156.124 18.6771 156.131 19.4258H160.232Z" fill="#181B26"/>
</g>
</svg>
