<svg width="56" height="56" viewBox="0 0 56 56" fill="none" xmlns="http://www.w3.org/2000/svg">
<path d="M0 28C0 43.464 12.536 56 28 56C43.464 56 56 43.464 56 28C56 12.536 43.464 9.53675e-07 28 9.53675e-07C12.536 9.53675e-07 0 12.536 0 28Z" fill="white"/>
<g clip-path="url(#clip0_1034_5918)">
<path d="M20.748 21.4646C20.748 20.5363 21.1168 19.6461 21.7732 18.9897C22.4296 18.3333 23.3198 17.9646 24.248 17.9646H27.748V24.9646H24.248C23.3198 24.9646 22.4296 24.5959 21.7732 23.9395C21.1168 23.2831 20.748 22.3929 20.748 21.4646Z" stroke="#9361FF" stroke-width="2" stroke-linecap="round" stroke-linejoin="round"/>
<path d="M27.748 17.9646H31.248C31.7077 17.9646 32.1628 18.0551 32.5874 18.231C33.0121 18.4069 33.3979 18.6647 33.7229 18.9897C34.0479 19.3147 34.3057 19.7006 34.4816 20.1252C34.6575 20.5498 34.748 21.005 34.748 21.4646C34.748 21.9242 34.6575 22.3794 34.4816 22.804C34.3057 23.2286 34.0479 23.6145 33.7229 23.9395C33.3979 24.2645 33.0121 24.5223 32.5874 24.6982C32.1628 24.8741 31.7077 24.9646 31.248 24.9646H27.748V17.9646Z" stroke="#9361FF" stroke-width="2" stroke-linecap="round" stroke-linejoin="round"/>
<path d="M27.748 28.4646C27.748 28.005 27.8386 27.5498 28.0145 27.1252C28.1904 26.7006 28.4482 26.3147 28.7732 25.9897C29.0982 25.6647 29.484 25.4069 29.9087 25.231C30.3333 25.0551 30.7884 24.9646 31.248 24.9646C31.7077 24.9646 32.1628 25.0551 32.5874 25.231C33.0121 25.4069 33.3979 25.6647 33.7229 25.9897C34.0479 26.3147 34.3057 26.7006 34.4816 27.1252C34.6575 27.5498 34.748 28.005 34.748 28.4646C34.748 28.9242 34.6575 29.3794 34.4816 29.804C34.3057 30.2286 34.0479 30.6145 33.7229 30.9395C33.3979 31.2645 33.0121 31.5223 32.5874 31.6982C32.1628 31.8741 31.7077 31.9646 31.248 31.9646C30.7884 31.9646 30.3333 31.8741 29.9087 31.6982C29.484 31.5223 29.0982 31.2645 28.7732 30.9395C28.4482 30.6145 28.1904 30.2286 28.0145 29.804C27.8386 29.3794 27.748 28.9242 27.748 28.4646V28.4646Z" stroke="#9361FF" stroke-width="2" stroke-linecap="round" stroke-linejoin="round"/>
<path d="M20.748 35.4646C20.748 34.5363 21.1168 33.6461 21.7732 32.9897C22.4296 32.3333 23.3198 31.9646 24.248 31.9646H27.748V35.4646C27.748 36.3929 27.3793 37.2831 26.7229 37.9395C26.0665 38.5959 25.1763 38.9646 24.248 38.9646C23.3198 38.9646 22.4296 38.5959 21.7732 37.9395C21.1168 37.2831 20.748 36.3929 20.748 35.4646Z" stroke="#9361FF" stroke-width="2" stroke-linecap="round" stroke-linejoin="round"/>
<path d="M20.748 28.4646C20.748 27.5363 21.1168 26.6461 21.7732 25.9897C22.4296 25.3333 23.3198 24.9646 24.248 24.9646H27.748V31.9646H24.248C23.3198 31.9646 22.4296 31.5959 21.7732 30.9395C21.1168 30.2831 20.748 29.3929 20.748 28.4646Z" stroke="#9361FF" stroke-width="2" stroke-linecap="round" stroke-linejoin="round"/>
</g>
<defs>
<clipPath id="clip0_1034_5918">
<rect width="24" height="24" fill="white" transform="translate(15.748 15.9646)"/>
</clipPath>
</defs>
</svg>
